<?xml version="1.0" standalone="no"?>
<!DOCTYPE svg PUBLIC "-//W3C//DTD SVG 20010904//EN"
 "http://www.w3.org/TR/2001/REC-SVG-20010904/DTD/svg10.dtd">
<svg version="1.0" xmlns="http://www.w3.org/2000/svg"
 width="1008.000000pt" height="1280.000000pt" viewBox="0 0 1008.000000 1280.000000"
 preserveAspectRatio="xMidYMid meet">
<g transform="translate(0.000000,1280.000000) scale(0.100000,-0.100000)"
fill="#000000" stroke="none">
<path d="M3455 12780 c-27 -11 -71 -20 -97 -20 -26 0 -49 -4 -53 -9 -3 -5 -31
-15 -62 -21 -31 -7 -93 -30 -138 -52 -66 -32 -98 -56 -159 -119 -42 -43 -81
-79 -87 -79 -15 0 -102 -190 -139 -305 -58 -184 -72 -264 -77 -472 -7 -239 3
-290 88 -464 60 -123 62 -125 187 -244 247 -233 327 -318 390 -415 62 -96 69
-105 96 -127 11 -10 13 -20 6 -44 -12 -42 -53 -109 -89 -148 -26 -28 -35 -32
-59 -25 -15 4 -88 8 -162 10 -74 1 -181 8 -237 15 -92 11 -109 11 -156 -4 -39
-13 -90 -17 -190 -17 -75 0 -148 -5 -163 -10 -14 -6 -91 -15 -170 -20 -92 -6
-155 -15 -174 -25 -16 -8 -69 -20 -117 -25 -132 -15 -239 -36 -332 -64 -47
-14 -94 -26 -106 -26 -12 0 -36 -7 -54 -16 -31 -15 -71 -28 -171 -55 -25 -7
-119 -49 -209 -93 -161 -80 -165 -83 -295 -205 -164 -154 -187 -193 -194 -326
-6 -129 1 -148 141 -345 18 -25 70 -108 117 -184 55 -89 95 -143 112 -152 15
-8 53 -49 84 -92 74 -101 245 -269 364 -358 185 -137 401 -290 489 -344 49
-30 105 -68 125 -83 34 -26 114 -72 344 -194 46 -25 86 -51 89 -60 3 -8 16
-19 29 -24 13 -4 32 -24 41 -44 9 -19 25 -38 36 -41 10 -3 23 -18 28 -34 6
-16 35 -46 71 -71 63 -46 98 -86 98 -113 0 -9 11 -38 24 -64 23 -46 24 -54 36
-517 18 -645 19 -1087 3 -1107 -7 -8 -30 -20 -52 -27 -72 -21 -124 -108 -107
-177 4 -14 40 -61 81 -104 l75 -79 -1 -308 c0 -169 -6 -366 -12 -438 l-12
-130 -125 -7 c-155 -8 -331 -32 -389 -52 -27 -10 -78 -16 -136 -16 -51 0 -156
-11 -236 -24 -79 -13 -205 -30 -279 -36 -74 -7 -154 -18 -176 -26 -23 -8 -104
-18 -181 -22 -77 -5 -146 -13 -154 -18 -8 -5 -43 -10 -79 -10 -36 -1 -150 -5
-255 -9 -187 -7 -191 -7 -269 19 -63 21 -98 26 -176 26 -53 0 -99 3 -103 6 -3
3 -27 7 -53 9 -45 3 -50 0 -86 -38 -46 -52 -48 -82 -13 -221 27 -110 65 -185
164 -325 38 -53 81 -118 96 -144 15 -26 54 -74 87 -105 33 -31 96 -103 140
-160 53 -69 97 -114 131 -136 32 -21 71 -60 102 -102 69 -96 133 -163 177
-185 20 -10 51 -39 68 -63 38 -57 203 -186 395 -312 83 -53 175 -116 205 -139
72 -55 118 -78 143 -71 11 3 35 -1 54 -9 30 -13 49 -12 176 9 106 18 200 25
372 30 144 3 282 13 370 25 77 11 250 25 385 31 135 6 261 16 280 22 74 24
134 27 255 13 57 -6 87 -3 160 15 64 15 144 24 280 30 268 13 446 32 470 50 6
4 57 10 115 13 88 4 118 10 183 36 65 27 95 32 190 37 87 4 124 11 167 29 64
28 298 60 315 44 6 -6 10 -80 10 -182 0 -144 -3 -177 -17 -204 -18 -31 -18
-31 -75 -25 -97 12 -601 -5 -878 -29 -118 -10 -102 -10 -240 -3 -99 5 -240 -4
-350 -22 -52 -8 -85 -40 -145 -139 -52 -87 -80 -118 -100 -113 -8 2 -25 -17
-38 -42 -14 -25 -79 -99 -146 -166 -67 -66 -172 -175 -235 -243 -63 -68 -131
-134 -151 -147 -20 -13 -49 -45 -65 -72 -17 -26 -58 -89 -93 -140 -35 -51 -67
-103 -71 -115 -5 -13 -24 -38 -42 -57 -88 -94 -186 -290 -197 -392 -2 -26 -11
-53 -18 -59 -8 -6 -14 -22 -14 -34 0 -43 47 -82 173 -143 149 -72 178 -82 275
-92 43 -4 111 -20 152 -35 72 -26 78 -27 155 -16 51 8 98 9 130 3 76 -13 222
-7 295 13 53 14 89 17 195 12 131 -6 290 -29 334 -48 18 -7 28 -6 40 5 36 32
95 47 229 57 116 8 151 15 237 45 173 62 210 72 296 84 46 6 99 18 117 26 19
8 58 14 86 14 28 0 80 10 116 22 57 19 91 22 270 25 113 2 234 3 270 2 174 -3
230 -3 285 0 76 4 269 -13 315 -28 48 -16 551 -5 594 13 53 22 104 27 255 27
161 0 339 19 395 43 43 18 47 26 90 208 31 127 32 139 18 168 -29 59 -103 120
-207 169 -96 46 -104 48 -199 50 -111 3 -160 21 -245 90 -82 67 -106 97 -171
216 -45 81 -77 128 -104 149 -80 63 -109 101 -167 222 -39 81 -69 130 -87 143
-16 11 -44 48 -62 83 -42 80 -103 170 -148 220 -25 28 -42 38 -65 38 -16 0
-61 9 -98 20 -64 19 -72 20 -126 6 -141 -37 -322 -56 -351 -37 -11 7 -13 159
-10 857 2 467 7 856 12 866 9 20 102 61 136 60 14 0 39 -4 56 -7 25 -5 40 -1
72 20 48 32 121 35 206 11 40 -12 61 -13 81 -6 15 6 119 10 234 10 115 0 233
5 262 10 30 6 101 13 159 16 58 2 119 9 135 14 17 5 73 16 125 25 52 9 156 36
230 60 76 24 174 49 225 55 50 6 97 14 105 17 25 10 34 11 384 28 104 5 135 4
160 -8 19 -9 82 -19 158 -24 127 -9 127 -9 227 -61 87 -46 107 -52 159 -52 51
0 67 5 114 36 66 43 91 81 82 121 -4 15 -46 80 -94 144 -49 65 -91 126 -95
138 -3 12 -11 21 -16 21 -5 0 -68 57 -140 127 -91 88 -144 133 -172 143 -70
26 -149 160 -133 224 9 37 120 151 164 169 20 8 71 18 112 22 41 4 91 15 112
25 20 10 58 23 85 28 96 20 245 61 258 72 7 6 67 25 132 41 65 17 133 38 153
47 42 20 237 214 251 250 5 14 21 89 34 166 36 206 38 212 110 283 72 70 82
92 61 125 -8 13 -26 52 -41 88 l-28 65 -5 830 c-8 1226 -7 1419 2 1540 l8 110
-56 117 c-66 137 -85 155 -251 246 -60 33 -133 74 -162 90 -43 24 -75 33 -175
46 -85 10 -130 21 -148 34 -37 28 -81 39 -210 56 -63 9 -131 20 -150 26 -19 5
-64 10 -100 11 -36 0 -97 6 -137 13 -43 8 -134 12 -235 10 -89 -1 -172 -2
-183 -2 -11 -1 -64 2 -118 4 -72 4 -116 1 -164 -11 -55 -14 -76 -15 -133 -5
-50 8 -74 9 -89 1 -34 -18 -160 -43 -261 -50 -52 -4 -144 -20 -205 -34 -60
-15 -145 -36 -188 -46 l-79 -19 -66 60 c-37 34 -90 76 -118 94 -41 26 -53 40
-60 71 -5 21 -10 398 -10 838 -3 1853 -1 1786 -51 1892 -29 63 -74 101 -208
179 -128 74 -196 101 -287 115 -40 6 -80 17 -89 25 -9 8 -34 18 -55 21 -22 3
-48 12 -59 19 -11 8 -46 14 -85 14 -36 0 -94 9 -130 20 -50 15 -94 20 -190 20
-69 0 -176 7 -239 16 -95 14 -126 15 -179 5 -50 -9 -76 -9 -111 0 -41 10 -59
9 -141 -11 -65 -16 -131 -24 -211 -26 -88 -2 -125 -6 -150 -20 -25 -12 -67
-18 -155 -22 l-122 -5 -93 57 c-125 75 -119 72 -159 90 -39 18 -363 66 -438
66 -26 -1 -69 -10 -97 -20z m399 -65 c20 -8 68 -22 107 -30 58 -12 78 -22 104
-49 17 -18 41 -36 52 -40 12 -4 53 -37 91 -74 38 -37 89 -84 114 -104 33 -27
59 -63 91 -126 82 -158 82 -211 -3 -349 -54 -88 -80 -117 -120 -135 -20 -8
-37 -32 -59 -80 -34 -73 -58 -93 -100 -85 -202 39 -426 106 -446 133 -7 10
-27 17 -51 18 -35 1 -39 -1 -36 -23 1 -12 21 -44 43 -70 23 -25 49 -61 58 -80
9 -19 29 -48 45 -65 16 -17 49 -72 74 -123 53 -110 52 -145 -2 -190 -19 -15
-44 -50 -56 -76 -18 -37 -45 -66 -118 -125 -52 -42 -102 -82 -111 -89 -24 -18
-202 27 -242 61 -17 15 -38 26 -48 26 -18 0 -92 63 -202 171 -40 40 -61 70
-70 100 -7 24 -21 56 -31 71 -29 42 -58 111 -58 139 0 14 -9 34 -20 44 -18 16
-20 31 -20 132 0 179 31 300 142 559 59 137 63 143 157 241 80 83 105 103 147
117 29 9 59 25 69 36 34 37 148 62 303 65 79 2 146 6 149 9 8 8 5 8 47 -9z
m1198 -113 c43 -2 84 0 90 5 14 10 27 9 333 -5 193 -10 239 -16 264 -36 8 -6
66 -16 130 -22 68 -7 137 -20 166 -31 59 -24 135 -44 187 -51 23 -2 94 -37
185 -91 145 -85 149 -89 186 -153 49 -85 54 -119 28 -189 -23 -61 -93 -149
-118 -149 -8 0 -41 -15 -72 -34 -80 -48 -218 -116 -236 -116 -8 0 -23 -9 -32
-20 -11 -12 -30 -20 -49 -20 -17 0 -49 -6 -70 -14 -22 -7 -61 -16 -87 -20 -26
-4 -64 -14 -85 -23 -20 -9 -73 -19 -117 -24 -110 -11 -177 -23 -195 -34 -14
-10 -226 -21 -520 -28 -74 -2 -180 -7 -235 -11 -78 -7 -119 -5 -185 8 -47 9
-114 19 -150 24 -62 7 -66 9 -83 44 -10 20 -23 63 -29 96 -11 58 -10 60 19
103 17 24 62 97 102 161 l71 117 -41 93 c-83 187 -83 199 -14 276 61 67 132
97 292 123 70 11 135 24 143 29 8 5 22 6 30 3 8 -3 50 -8 92 -11z m-2235 -538
c3 -9 0 -46 -6 -83 -48 -253 -22 -468 69 -591 22 -30 43 -66 46 -80 16 -70 30
-93 92 -152 147 -139 168 -167 142 -183 -29 -18 -101 34 -253 182 -148 145
-200 283 -199 523 0 205 76 470 109 384z m3826 -246 c14 -170 2 -478 -17 -478
-6 0 -33 16 -60 35 -27 19 -65 38 -85 41 -20 4 -56 21 -81 38 -44 30 -49 31
-215 41 -94 6 -191 9 -217 7 -43 -4 -47 -6 -38 -23 15 -27 72 -39 195 -39 144
0 227 -13 272 -42 20 -13 60 -30 87 -38 41 -13 54 -22 68 -50 22 -43 23 -113
3 -133 -29 -29 -81 -55 -174 -87 -52 -17 -130 -50 -174 -73 -65 -34 -89 -41
-140 -43 -34 0 -114 -13 -177 -27 -210 -48 -290 -47 -290 4 0 25 -16 24 -83
-6 -65 -28 -154 -44 -213 -38 -24 3 -45 0 -48 -6 -8 -13 -51 -14 -74 -2 -10 5
-52 3 -102 -5 -47 -7 -120 -13 -163 -13 -45 -1 -93 -7 -114 -16 -55 -23 -401
-21 -508 4 -44 10 -93 25 -110 33 -35 18 -97 31 -255 53 -152 21 -190 32 -190
52 0 29 38 97 89 157 27 32 60 79 73 105 22 42 32 50 133 101 120 60 138 83
70 88 -26 2 -63 -6 -109 -24 l-70 -27 -44 49 c-48 52 -108 166 -97 184 9 14
41 13 73 -4 15 -7 57 -16 93 -19 37 -3 123 -24 190 -46 97 -30 152 -42 254
-51 72 -6 158 -18 192 -26 104 -24 283 -27 598 -10 203 10 333 22 403 36 56
11 122 20 146 20 54 0 132 23 158 47 15 14 42 19 113 23 83 5 100 9 171 47 44
23 105 48 135 56 67 17 178 80 250 142 29 25 58 45 64 45 8 0 14 -30 18 -82z
m-197 -812 c18 -14 18 -16 2 -44 -38 -64 -2 -87 37 -25 23 38 35 40 60 13 12
-13 16 -29 12 -52 -3 -18 -7 -42 -9 -53 -5 -32 44 -28 52 4 7 31 26 38 35 12
6 -20 14 -878 19 -2011 1 -300 5 -551 9 -557 10 -15 -10 -358 -24 -426 -6 -28
-22 -73 -35 -99 -13 -26 -24 -57 -24 -69 0 -35 -40 -195 -53 -213 -11 -14 -25
-14 -156 9 -79 14 -165 25 -191 25 -56 0 -78 15 -82 55 -2 17 -9 30 -16 30 -7
0 -20 -13 -30 -30 l-19 -30 -300 0 c-227 0 -304 -3 -315 -13 -10 -8 -49 -12
-119 -11 -63 1 -131 -5 -174 -15 -38 -9 -131 -25 -205 -35 -74 -11 -164 -29
-200 -40 -36 -12 -78 -21 -94 -21 -73 0 -158 -23 -204 -54 -32 -23 -64 -35
-100 -39 -63 -7 -133 -38 -246 -107 -45 -27 -93 -52 -109 -56 -15 -3 -34 -18
-43 -33 -8 -14 -32 -38 -53 -53 -24 -17 -49 -50 -69 -90 -42 -83 -98 -148
-111 -129 -23 36 -34 221 -29 533 l5 319 39 40 c21 22 73 63 114 91 67 45 76
48 85 33 5 -10 21 -31 34 -47 18 -22 26 -26 37 -17 22 18 17 48 -10 59 -13 5
-27 13 -30 19 -9 14 11 51 28 51 7 0 25 9 39 20 25 20 28 20 57 5 41 -21 52
-12 45 39 -7 42 -6 43 51 90 32 26 76 52 100 58 33 9 46 19 59 47 26 54 72
108 144 167 69 58 85 63 111 39 15 -14 18 -14 30 0 10 13 10 19 -4 33 -24 27
-20 47 15 76 30 25 47 32 99 38 14 2 24 8 24 13 -1 6 -5 24 -8 40 -6 28 3 43
90 150 194 240 256 336 304 473 13 34 28 62 34 62 6 0 52 -17 101 -39 94 -40
192 -73 285 -94 51 -11 55 -14 63 -49 10 -44 15 -45 52 -16 27 21 28 21 97 5
63 -16 73 -16 101 -2 39 20 40 19 76 -11 38 -32 66 -26 57 11 -5 19 1 35 23
63 42 52 57 100 80 259 29 203 34 303 21 443 -30 336 -86 517 -176 577 -14 9
-34 32 -44 52 -11 20 -31 47 -45 60 -29 27 -31 38 -9 62 18 20 12 49 -9 49 -8
0 -20 -7 -27 -15 -18 -22 -52 -19 -91 8 -30 21 -34 28 -33 68 0 50 34 109 62
109 8 0 26 -9 38 -21 27 -26 44 -18 44 21 0 18 7 33 18 39 11 6 98 26 194 45
139 28 193 44 259 76 88 43 124 49 155 26z m-3157 -72 c3 -2 0 -9 -6 -15 -13
-13 -53 5 -53 22 0 10 48 4 59 -7z m589 -45 c18 -6 69 -16 114 -23 l83 -11 3
-33 c3 -31 24 -44 37 -22 3 6 20 17 36 26 54 27 89 -4 55 -49 -18 -23 -9 -57
15 -57 16 0 19 8 19 45 0 38 3 45 19 45 41 0 71 -19 71 -44 0 -27 28 -62 41
-49 4 4 9 22 11 38 3 29 5 30 73 37 100 11 117 5 140 -45 23 -49 48 -55 55
-13 5 28 10 31 70 42 104 20 135 18 154 -11 33 -50 13 -83 -79 -128 -111 -54
-183 -101 -240 -158 -33 -32 -66 -59 -73 -59 -6 0 -18 -13 -26 -29 -8 -15 -27
-36 -42 -46 -51 -33 -117 -100 -151 -153 -37 -58 -69 -77 -107 -62 -13 5 -26
7 -29 4 -2 -3 -42 5 -88 17 -46 12 -129 29 -183 38 -99 16 -99 17 -111 50 -6
19 -23 43 -37 55 -29 24 -48 73 -48 122 0 39 2 40 34 19 19 -13 28 -13 50 -4
52 24 22 61 -45 57 l-44 -3 -3 37 c-2 20 6 87 17 149 l21 111 60 59 c64 61 76
66 128 48z m1117 -129 c7 -12 -12 -40 -26 -40 -10 0 -12 34 -2 43 9 10 21 9
28 -3z m269 -45 c20 -8 36 -19 36 -23 -1 -12 -69 -42 -113 -48 -62 -9 -221
-95 -335 -182 -192 -146 -239 -189 -278 -254 -20 -35 -51 -81 -69 -103 -17
-22 -43 -76 -57 -120 -28 -88 -111 -282 -133 -311 -13 -18 -15 -18 -82 0 -37
10 -74 22 -80 28 -30 25 -2 188 48 276 54 96 199 304 227 325 15 12 60 49 99
83 40 33 94 72 120 85 27 13 65 38 86 55 21 18 64 46 97 63 64 34 291 118 355
131 22 4 41 8 41 9 1 1 18 -6 38 -14z m356 -132 c41 -8 89 -23 105 -33 40 -25
252 -252 264 -283 6 -14 15 -72 21 -129 6 -56 20 -136 31 -176 28 -99 40 -280
29 -411 -20 -218 -72 -331 -176 -382 -40 -19 -55 -21 -121 -15 -42 4 -89 14
-105 22 -16 8 -82 26 -146 40 -64 14 -129 34 -144 45 -15 10 -41 19 -58 19
-36 0 -77 19 -104 49 -11 12 -29 21 -40 21 -12 1 -41 11 -66 23 l-45 22 -6 91
c-6 101 -29 161 -79 209 -28 27 -30 28 -55 11 -15 -10 -38 -43 -52 -74 -35
-82 -38 -86 -64 -99 -28 -15 -157 -17 -192 -4 -18 7 -34 35 -69 118 -51 121
-68 182 -68 245 0 70 19 120 60 158 20 19 52 63 70 98 33 63 49 79 181 188
144 119 276 196 407 239 111 36 273 39 422 8z m-2510 -404 c129 -5 262 -10
296 -9 35 1 103 -9 160 -24 57 -14 157 -29 237 -34 111 -9 147 -15 192 -36 30
-14 57 -31 59 -38 2 -7 9 -33 15 -58 26 -93 25 -108 -1 -115 -14 -4 -65 1
-114 9 -104 18 -166 20 -180 6 -8 -8 -40 -6 -106 5 -65 11 -123 15 -179 11
-46 -4 -120 -5 -164 -4 -115 4 -197 2 -305 -6 -52 -4 -153 -7 -225 -6 -101 1
-139 -2 -169 -15 -30 -13 -68 -16 -170 -15 -170 3 -296 -9 -343 -32 -13 -6
-48 -9 -82 -5 -44 4 -77 0 -121 -14 -33 -10 -144 -35 -247 -55 -191 -36 -319
-71 -385 -105 -21 -11 -52 -19 -70 -19 -52 0 -166 -60 -225 -118 -28 -29 -60
-52 -70 -52 -24 0 -87 -42 -144 -97 -61 -58 -110 -67 -152 -27 -27 25 -28 29
-22 88 6 49 14 68 40 97 18 20 51 63 74 97 61 90 173 176 254 196 16 4 59 27
96 52 52 35 91 51 166 69 54 14 105 31 114 38 9 8 38 17 64 20 26 2 56 12 66
21 10 9 30 16 45 16 15 0 34 7 42 15 9 8 32 15 52 15 45 0 180 24 282 51 79
21 181 35 365 50 131 10 167 15 203 24 15 4 83 7 152 6 69 0 141 4 160 9 19 5
51 7 70 4 19 -2 141 -9 270 -15z m205 -370 c48 -7 142 -6 302 2 185 10 249 10
314 0 122 -19 127 -22 131 -78 3 -43 7 -50 43 -74 60 -39 158 -75 275 -99 72
-15 122 -33 160 -55 73 -43 148 -67 215 -67 66 -1 80 9 141 105 24 37 46 67
50 67 3 0 14 -4 24 -10 26 -14 40 -63 40 -146 0 -69 -2 -76 -43 -136 -25 -37
-74 -88 -118 -123 -195 -155 -213 -168 -263 -180 -28 -7 -89 -31 -135 -54 -47
-22 -92 -41 -101 -41 -9 0 -30 -11 -48 -24 -22 -16 -51 -25 -96 -29 -34 -3
-87 -15 -117 -26 -30 -12 -68 -21 -85 -21 -44 0 -172 -29 -214 -48 -23 -11
-83 -19 -180 -24 -80 -5 -165 -15 -190 -24 -25 -8 -90 -16 -145 -18 -55 -2
-136 -9 -180 -16 -48 -7 -124 -9 -190 -6 -60 3 -155 6 -210 5 -152 -1 -154 -1
-240 4 -270 17 -629 57 -745 83 -36 8 -93 19 -126 24 -34 5 -97 19 -140 30
-44 12 -88 21 -98 21 -33 0 -54 18 -66 56 -6 21 -14 44 -16 52 -3 10 -11 5
-24 -17 -11 -18 -27 -35 -35 -38 -42 -16 -325 121 -333 161 -7 33 8 65 33 71
28 7 33 35 10 54 -12 10 -18 10 -30 0 -41 -34 -46 33 -9 114 27 60 56 73 62
28 2 -13 9 -21 15 -19 7 3 10 11 8 18 -12 43 -9 58 24 101 26 36 45 50 77 59
24 7 57 23 75 36 22 16 45 23 76 23 31 0 63 10 103 31 55 28 59 29 71 13 7
-10 13 -28 13 -41 0 -16 6 -23 20 -23 21 0 29 33 10 45 -19 12 -10 42 18 55
15 7 61 15 102 17 77 4 175 28 186 44 3 5 19 9 36 9 17 0 73 12 125 26 68 18
108 24 137 20 26 -4 66 0 105 9 34 9 69 14 78 11 8 -3 35 1 59 9 45 15 169 20
212 9 12 -4 25 -17 28 -30 8 -32 27 -30 40 4 19 49 66 57 366 57 146 0 270 4
274 8 5 5 18 5 29 2 11 -3 52 -10 90 -16z m5146 -419 c14 -4 33 -4 42 2 11 6
24 5 39 -3 12 -6 58 -11 106 -10 49 0 91 -4 98 -10 8 -6 45 -13 84 -14 38 -2
76 -7 82 -12 7 -4 42 -11 78 -14 36 -4 126 -25 200 -47 74 -21 169 -42 210
-46 58 -6 81 -13 104 -33 16 -13 85 -51 152 -83 83 -40 125 -66 129 -80 3 -11
25 -33 49 -49 30 -21 46 -41 54 -69 27 -90 3 -165 -81 -249 -60 -62 -88 -68
-107 -23 -13 31 -77 67 -167 95 -24 7 -64 31 -90 53 -29 23 -64 42 -88 46 -21
4 -84 25 -140 45 -55 21 -116 41 -136 45 -32 6 -37 3 -47 -19 -20 -42 -13
-125 9 -125 5 0 16 14 25 31 14 28 19 30 52 25 20 -4 64 -20 97 -35 33 -16 74
-29 92 -29 41 -1 99 -28 118 -56 25 -35 18 -101 -20 -186 -19 -43 -35 -85 -35
-93 0 -24 -29 -47 -58 -47 -15 0 -40 -9 -57 -20 -16 -11 -44 -20 -62 -20 -17
0 -35 -4 -38 -10 -3 -5 -32 -10 -63 -10 -31 0 -70 -7 -86 -15 -15 -8 -37 -15
-47 -15 -10 0 -20 -4 -23 -9 -3 -4 -17 -6 -30 -4 -14 3 -56 -4 -95 -16 -38
-12 -95 -21 -126 -21 -31 0 -65 -5 -75 -10 -12 -6 -177 -13 -408 -16 -347 -6
-399 -5 -478 11 -54 11 -110 15 -146 12 -46 -4 -76 1 -148 24 -49 16 -112 29
-139 29 -94 0 -504 143 -563 197 -14 12 -18 31 -18 78 0 70 6 79 65 89 22 4
112 32 201 62 171 57 267 73 354 57 38 -7 48 -14 62 -43 27 -52 51 -46 62 15
5 28 10 52 12 54 1 1 47 13 101 26 73 17 113 22 158 17 79 -8 128 -6 255 8
218 24 868 34 905 13 24 -13 69 1 63 19 -10 29 -111 37 -468 37 -382 0 -385 0
-446 -18 -23 -6 -146 -13 -275 -16 -274 -6 -352 -13 -397 -40 -31 -19 -35 -19
-170 -2 -162 20 -224 21 -274 3 -33 -12 -41 -11 -65 4 -15 10 -39 29 -52 44
-14 14 -34 26 -47 26 -33 0 -49 26 -46 78 3 66 8 74 65 103 29 14 93 47 142
73 65 34 112 51 170 61 127 22 166 32 178 44 6 6 31 11 57 11 25 0 52 4 59 9
9 6 22 6 32 0 19 -10 153 12 234 39 48 15 98 19 495 40 158 8 280 5 321 -8z
m-3632 -336 c11 -14 25 -50 31 -81 11 -52 10 -56 -12 -80 -12 -14 -43 -36 -68
-50 -25 -14 -62 -36 -82 -49 -21 -13 -53 -24 -71 -24 -21 0 -72 -19 -132 -50
-54 -27 -105 -50 -114 -50 -10 0 -66 -20 -127 -44 -60 -25 -131 -48 -159 -51
-27 -4 -72 -18 -100 -31 -27 -13 -81 -28 -120 -35 -38 -6 -97 -21 -130 -34
-34 -13 -100 -29 -147 -35 -48 -6 -103 -17 -123 -26 -21 -8 -57 -14 -83 -12
-41 3 -47 6 -44 23 8 49 6 60 -8 60 -11 0 -15 -12 -15 -45 0 -74 -1 -74 -550
-96 -129 -5 -174 -4 -225 9 -36 9 -105 19 -155 22 -134 10 -298 34 -309 45 -6
6 -28 10 -50 10 -23 0 -75 6 -116 14 -41 8 -140 24 -220 36 -172 25 -288 52
-389 91 -83 32 -92 41 -84 81 5 24 2 28 -16 28 -11 0 -28 -11 -37 -25 -22 -33
-52 -32 -103 5 -36 27 -42 35 -39 62 3 30 1 32 -51 47 -86 26 -175 118 -196
204 -7 25 -5 27 22 27 16 0 56 -16 89 -37 100 -62 165 -93 197 -93 17 0 47
-11 66 -24 20 -13 68 -31 108 -41 l72 -17 6 -39 c9 -50 21 -57 39 -21 8 16 22
32 29 35 18 7 77 -6 181 -39 55 -17 121 -28 215 -35 75 -5 197 -16 271 -24
276 -29 624 -46 852 -42 123 3 239 8 258 10 19 3 177 26 350 52 338 49 438 68
595 114 55 16 126 35 157 41 32 6 78 22 103 36 25 13 51 24 58 24 7 0 18 9 24
20 8 12 47 30 109 49 96 30 169 66 194 95 17 22 25 20 49 -10z m-160 -358 c9
-11 9 -20 2 -35 -15 -26 -107 -121 -119 -121 -5 0 -22 -17 -38 -37 -72 -98
-160 -194 -180 -199 -13 -3 -30 -17 -39 -30 -8 -13 -22 -24 -30 -24 -8 0 -67
-45 -131 -101 -141 -121 -231 -190 -391 -298 -67 -45 -129 -93 -137 -107 -9
-13 -22 -24 -28 -24 -6 0 -48 -26 -92 -59 -45 -32 -90 -63 -102 -69 -11 -6
-29 -29 -39 -51 -11 -26 -34 -52 -63 -71 -100 -66 -170 -232 -206 -487 -38
-268 -52 -875 -35 -1478 7 -258 13 -488 13 -510 -10 -654 -15 -759 -32 -778
-25 -28 -97 -19 -160 22 -49 31 -49 32 -55 94 -3 34 -2 141 3 237 25 487 7
2390 -24 2620 -23 164 -20 157 -91 249 -36 46 -65 88 -65 92 0 5 -20 18 -43
29 -24 11 -54 34 -66 51 -13 17 -44 39 -69 50 -26 11 -63 35 -82 54 -20 19
-61 42 -95 54 -36 12 -71 33 -87 51 -22 23 -36 30 -66 30 -29 0 -51 10 -92 40
-29 22 -60 40 -67 40 -25 0 -96 41 -193 111 -52 38 -104 75 -114 82 -19 14
-19 15 7 88 28 76 33 109 18 109 -17 0 -34 -31 -51 -93 -11 -41 -23 -63 -34
-65 -24 -5 -44 14 -51 51 -12 60 -16 67 -39 67 -46 0 -57 20 -54 95 4 83 3 83
128 65 97 -13 111 -19 126 -49 18 -34 20 -35 78 -11 71 30 90 23 81 -30 -5
-31 -3 -41 8 -46 21 -8 54 12 62 35 8 27 19 29 128 21 115 -9 129 -17 121 -71
-6 -37 -5 -39 20 -39 19 0 26 5 26 19 0 42 11 51 60 51 51 0 60 -10 60 -67 0
-32 22 -28 43 7 28 47 48 53 130 41 40 -6 87 -12 106 -14 30 -2 36 -7 43 -33
8 -34 34 -61 45 -50 4 4 7 24 8 44 l0 37 200 6 c110 4 236 12 280 18 370 56
525 84 560 101 22 10 81 25 131 33 69 11 109 25 168 56 55 29 90 41 119 41 60
0 108 15 227 72 92 44 223 97 241 98 4 0 12 -6 18 -14z m5157 -164 c21 -16 52
-52 67 -80 57 -104 56 -103 53 -1107 -4 -973 -4 -985 -52 -1185 -15 -63 -22
-74 -66 -111 -27 -23 -60 -58 -73 -80 -24 -37 -29 -40 -223 -103 -205 -66
-339 -99 -452 -111 -36 -4 -96 -16 -133 -27 -45 -13 -84 -19 -114 -15 -62 7
-71 18 -48 64 10 21 21 45 25 53 4 8 25 20 47 26 68 20 119 52 234 144 61 49
130 101 153 116 77 49 254 303 312 448 l33 81 47 7 c26 4 52 12 58 18 15 15
-4 43 -40 55 -16 6 -34 13 -41 18 -17 11 -24 82 -15 147 7 52 9 55 37 58 39 4
49 15 40 42 -6 18 -12 21 -43 15 -45 -7 -52 2 -111 156 -35 90 -49 112 -96
159 -51 50 -61 56 -128 68 -159 31 -280 20 -314 -28 -12 -17 -26 -20 -87 -20
-53 0 -100 -8 -171 -30 -54 -16 -105 -30 -115 -30 -10 0 -24 -7 -31 -16 -7 -9
-50 -34 -96 -55 -59 -29 -92 -51 -116 -82 -54 -67 -166 -259 -173 -297 -4 -19
-13 -47 -20 -62 -9 -16 -14 -60 -14 -113 0 -77 2 -85 19 -85 23 0 33 32 25 80
-8 46 25 143 80 240 23 41 49 91 56 110 17 42 77 110 96 110 8 0 28 14 46 30
17 17 41 30 52 30 12 0 31 7 43 15 28 20 35 7 27 -45 -7 -41 -7 -42 22 -38 20
2 33 12 42 30 7 16 25 31 40 35 15 3 50 17 78 29 41 18 52 28 57 52 6 28 9 30
64 34 65 6 73 0 73 -50 0 -34 0 -34 39 -27 34 6 41 3 60 -21 57 -72 49 -168
-27 -322 -27 -55 -33 -75 -24 -84 28 -28 100 95 123 210 19 98 7 153 -51 249
-27 45 -50 91 -50 102 0 19 6 21 68 21 65 0 233 -23 251 -35 26 -16 125 -179
132 -217 4 -24 15 -70 24 -103 14 -49 16 -91 13 -225 -4 -144 -7 -171 -26
-214 -81 -179 -254 -377 -485 -555 -111 -85 -144 -100 -242 -108 -38 -3 -81
-10 -95 -16 -32 -14 -132 -18 -146 -6 -11 9 -78 24 -157 34 l-47 6 12 -26 c9
-21 8 -34 -10 -78 -12 -28 -22 -70 -24 -92 l-3 -40 -80 1 c-44 1 -111 3 -150
4 -38 1 -77 2 -85 0 -25 -3 -168 20 -282 46 -59 13 -133 24 -166 24 -50 0 -66
5 -100 30 -64 46 -96 117 -97 210 0 58 5 83 21 110 19 33 23 35 64 31 l44 -3
-16 23 c-8 13 -28 26 -44 29 -23 4 -29 11 -28 30 1 23 21 135 30 168 3 10 16
11 50 6 44 -6 46 -6 42 17 -2 16 -12 25 -36 31 l-33 9 3 97 c3 80 6 96 18 93
8 -2 24 -4 35 -5 32 -2 25 35 -10 54 l-30 17 -1 134 c-2 188 -35 277 -116 310
-18 7 -39 21 -46 31 -7 10 -36 30 -65 44 -28 15 -67 37 -87 50 -19 13 -51 29
-70 35 -19 7 -55 25 -81 39 -25 15 -66 30 -92 34 -64 10 -72 26 -58 126 13 96
44 181 120 324 91 171 133 306 97 306 -20 0 -23 -6 -89 -175 -115 -298 -208
-505 -228 -505 -10 0 -20 8 -23 18 -3 9 -7 109 -8 221 -3 192 -2 204 16 215
11 6 29 21 41 33 19 19 28 21 78 16 53 -5 57 -4 57 15 0 17 -15 29 -62 53 -35
17 -71 38 -80 47 -38 33 -15 86 85 192 78 82 60 79 217 37 52 -14 146 -33 209
-42 63 -9 125 -24 138 -32 18 -12 38 -14 80 -10 39 4 67 1 92 -9 19 -8 40 -13
46 -10 7 2 38 -3 71 -11 45 -12 113 -15 289 -15 127 0 262 -3 300 -8 55 -7 75
-6 92 6 16 10 54 14 137 14 63 0 125 4 138 9 13 5 79 15 148 21 80 8 128 17
135 26 6 8 73 24 155 39 173 29 238 48 274 76 14 11 63 32 109 46 94 28 198
80 248 123 19 16 39 29 45 30 6 0 29 -13 50 -28z m-3731 -1064 c33 -5 94 -10
135 -12 41 -1 100 -9 130 -18 30 -9 102 -22 159 -28 112 -12 176 -32 191 -59
8 -16 -27 -124 -47 -141 -4 -4 -65 -4 -134 0 -124 7 -128 8 -168 40 l-41 34
-118 -13 c-112 -12 -121 -12 -177 8 -64 23 -97 24 -455 14 -101 -3 -185 0
-216 7 -36 8 -59 8 -79 0 -15 -6 -84 -20 -154 -31 -69 -11 -130 -24 -136 -29
-6 -5 -20 -8 -30 -8 -29 2 -133 -30 -187 -58 -29 -15 -78 -28 -130 -35 -46 -5
-105 -20 -133 -33 -85 -40 -175 -65 -233 -66 -18 0 -64 -16 -102 -35 -79 -40
-250 -91 -274 -82 -10 4 -16 18 -16 41 0 46 38 90 111 126 31 16 60 34 63 39
4 5 37 26 74 47 37 20 81 47 99 60 23 18 45 24 80 24 37 0 68 10 138 45 84 42
99 46 205 55 80 7 122 16 144 29 32 20 216 51 299 51 24 0 48 5 54 11 5 5 57
12 114 15 57 3 145 9 194 13 111 10 558 2 640 -11z m-2664 -14 c21 -26 88
-234 98 -309 6 -38 15 -149 21 -245 6 -96 20 -285 32 -420 26 -319 37 -860 17
-876 -17 -14 -355 -64 -431 -64 -33 0 -60 5 -65 13 -7 7 -13 198 -17 487 -7
487 -1 662 30 818 8 42 21 114 29 159 35 192 131 374 229 434 38 23 40 23 57
3z m3464 -135 c140 -36 259 -100 375 -199 31 -26 65 -49 75 -51 32 -7 49 -56
50 -144 0 -103 -30 -170 -88 -198 -35 -18 -39 -18 -62 -3 -15 10 -29 33 -35
58 -15 57 -113 153 -168 163 -58 11 -91 32 -182 119 -48 45 -96 89 -109 99
-19 15 -22 25 -18 52 7 41 54 125 71 125 7 0 48 -9 91 -21z m-865 -101 c35
-17 60 -21 115 -19 189 7 180 8 183 -15 2 -15 -7 -29 -27 -43 -16 -12 -40 -38
-52 -59 -12 -20 -35 -50 -50 -67 -35 -37 -59 -132 -59 -233 0 -116 10 -130
133 -190 130 -64 159 -68 122 -14 -9 12 -54 43 -101 69 -96 53 -100 61 -97
163 3 114 57 222 146 294 32 25 47 30 95 31 35 0 70 8 91 19 27 14 38 16 61 6
32 -13 40 -34 40 -102 0 -27 4 -48 9 -48 5 0 17 23 26 51 10 28 24 53 32 56
21 8 80 -38 141 -110 l54 -62 -5 -68 c-4 -69 -46 -170 -87 -215 -25 -26 -158
-55 -227 -50 -53 5 -53 4 -53 -24 l0 -28 82 0 c45 0 110 5 145 11 51 9 68 17
89 42 37 44 63 108 76 191 15 91 22 100 71 92 117 -19 197 -114 197 -234 0
-32 -5 -45 -22 -56 -57 -36 -372 -166 -404 -166 -18 0 -81 -18 -139 -40 -87
-33 -118 -40 -178 -40 -39 0 -79 -4 -86 -9 -9 -6 -22 -6 -31 -1 -11 6 -36 0
-76 -16 -77 -33 -205 -44 -402 -37 -95 4 -215 1 -315 -7 -146 -12 -175 -12
-297 4 -74 10 -179 22 -234 26 -54 5 -104 14 -111 20 -7 6 -30 10 -52 10 -71
-2 -187 20 -386 74 -148 40 -203 59 -219 76 -12 12 -55 38 -97 57 -42 19 -79
40 -83 46 -13 20 -9 76 8 108 8 17 44 62 80 101 49 53 73 72 95 75 17 2 38 7
48 13 10 5 50 16 88 25 44 10 99 33 147 61 62 38 89 48 150 55 41 5 94 16 118
25 24 8 107 26 186 39 89 15 155 31 175 44 51 31 311 71 495 76 62 1 116 5
119 9 4 3 56 6 117 6 93 0 118 -4 156 -22z m-2301 -456 c5 -10 19 -83 31 -162
11 -80 28 -177 37 -217 15 -68 15 -73 -2 -99 l-17 -27 37 -35 c38 -36 60 -77
49 -93 -3 -5 -20 -9 -39 -9 -39 0 -56 -27 -29 -47 21 -16 31 -16 39 -3 3 6 14
10 24 10 14 0 27 -21 52 -82 18 -46 43 -105 56 -132 29 -56 25 -72 -16 -81
-33 -7 -40 -25 -16 -45 19 -16 52 -4 58 20 3 11 10 20 16 20 18 0 51 -62 51
-97 0 -21 11 -45 36 -74 41 -49 134 -229 134 -258 0 -11 -4 -23 -10 -26 -5 -3
-10 -16 -10 -27 0 -18 4 -20 41 -15 60 8 83 -19 91 -108 3 -26 8 -31 41 -36
40 -6 58 -22 118 -106 16 -24 37 -43 45 -43 9 0 57 -42 108 -93 50 -51 121
-113 158 -137 75 -50 83 -71 37 -95 -34 -18 -34 -38 -1 -43 18 -3 26 5 37 32
9 20 18 36 21 36 8 0 61 -37 114 -81 25 -20 60 -44 79 -54 33 -17 34 -18 28
-70 -4 -36 -1 -59 7 -71 13 -17 14 -16 25 4 6 11 11 29 11 39 0 11 6 26 13 35
11 14 21 12 95 -23 75 -35 82 -40 82 -67 0 -42 -18 -89 -63 -160 -23 -38 -47
-64 -60 -67 -36 -7 -140 -16 -172 -15 -16 0 -93 1 -169 1 -150 0 -170 5 -160
45 7 27 -10 54 -33 54 -15 0 -15 -3 4 -62 8 -28 -82 -24 -175 8 -47 15 -88 23
-105 20 -34 -7 -107 21 -107 40 0 8 6 23 13 35 10 17 9 22 -7 35 -27 19 -28
18 -48 -17 -14 -24 -22 -29 -40 -24 -49 15 -68 34 -68 70 0 42 -20 47 -44 10
-9 -14 -25 -25 -35 -25 -10 0 -26 11 -35 25 -10 15 -26 25 -39 25 -13 0 -37
15 -56 34 -26 27 -33 44 -38 91 -6 62 1 75 45 75 18 0 23 5 20 23 -3 19 -10
22 -48 25 -64 3 -75 -7 -74 -71 4 -152 109 -278 267 -318 27 -6 60 -24 75 -39
30 -29 135 -58 292 -80 41 -6 105 -20 141 -32 61 -19 76 -20 210 -11 79 6 171
7 204 3 33 -4 146 -5 250 -2 164 4 192 3 203 -11 19 -22 27 -175 13 -220 -15
-46 -24 -48 -171 -46 -215 3 -445 -2 -498 -11 -42 -8 -57 -7 -68 4 -8 8 -44
17 -81 21 -210 20 -323 38 -387 61 -39 14 -94 29 -122 34 -49 8 -103 30 -134
54 -8 7 -39 18 -69 24 -30 7 -77 26 -105 42 -51 28 -175 130 -188 153 -12 23
-32 1015 -34 1767 -2 642 0 758 12 782 17 32 39 36 53 10z m198 -158 c68 -56
117 -84 149 -84 10 0 50 -22 90 -49 40 -28 92 -55 116 -61 24 -7 59 -20 78
-30 19 -10 62 -21 95 -23 33 -3 105 -20 160 -38 68 -22 132 -35 200 -41 55 -4
114 -10 130 -13 17 -3 98 -9 180 -14 83 -5 182 -14 220 -20 87 -12 484 -7 585
8 41 6 136 15 210 20 94 6 152 15 189 30 31 11 65 18 78 15 26 -7 136 10 204
32 25 8 98 28 163 44 64 16 137 40 161 54 34 21 57 26 107 26 316 0 348 -257
104 -837 -31 -73 -56 -139 -56 -147 0 -8 -18 -36 -41 -62 -22 -25 -71 -108
-109 -183 -81 -161 -120 -218 -163 -236 -18 -8 -80 -65 -140 -129 -70 -75
-129 -128 -170 -152 -34 -20 -109 -70 -167 -109 -165 -113 -195 -128 -234
-121 -43 8 -51 -9 -36 -79 16 -76 4 -98 -67 -125 -32 -12 -88 -27 -125 -33
-57 -9 -70 -8 -92 7 -16 10 -62 20 -119 25 -108 10 -158 29 -183 65 -16 26
-16 28 10 77 39 76 37 79 -43 79 -64 0 -73 3 -129 40 -33 22 -68 40 -79 40
-11 0 -37 14 -58 30 -21 17 -46 30 -56 30 -10 0 -33 13 -51 28 -18 16 -53 42
-78 59 -25 17 -56 43 -70 58 -14 15 -45 41 -70 57 -61 38 -317 284 -400 383
-37 44 -77 100 -90 125 -12 25 -37 61 -55 80 -19 20 -65 103 -108 195 -41 88
-108 232 -150 320 -119 256 -170 427 -183 618 -9 119 -4 121 93 41z m5735
-806 c8 -7 29 -34 46 -59 17 -25 37 -51 46 -58 9 -8 16 -29 16 -51 0 -32 -7
-44 -52 -86 -73 -68 -140 -115 -226 -158 -75 -38 -211 -76 -272 -76 -20 0 -40
-4 -45 -9 -15 -15 -211 -81 -238 -81 -14 0 -40 -6 -58 -14 -19 -7 -54 -12 -79
-9 -25 2 -75 -4 -112 -13 -53 -13 -74 -14 -100 -5 -23 8 -47 8 -88 0 -31 -6
-87 -8 -126 -5 -38 3 -86 6 -107 6 -46 -1 -146 27 -168 46 -8 8 -29 14 -46 14
-17 0 -36 6 -42 14 -7 8 -27 18 -44 22 -18 3 -43 12 -57 19 -66 35 -210 77
-237 70 -16 -4 -39 -9 -53 -10 -14 -2 -37 -6 -52 -10 -29 -8 -98 26 -189 92
-67 48 -107 143 -60 143 11 0 32 11 48 24 44 36 61 43 171 61 110 18 135 17
222 -10 56 -17 328 -37 505 -36 50 0 108 -1 130 -1 64 -2 118 -1 315 6 138 6
189 11 201 22 8 8 35 14 58 14 23 0 54 8 68 18 18 11 56 19 117 23 110 7 203
25 234 46 13 8 40 16 60 18 21 2 58 13 82 24 52 23 109 27 132 9z m-6150 -349
c66 -71 106 -157 114 -244 9 -111 -2 -143 -61 -178 -28 -16 -65 -42 -83 -58
-26 -23 -42 -29 -81 -29 -60 0 -156 30 -236 73 l-60 32 -6 190 c-3 105 -4 195
-2 200 7 23 50 37 127 40 44 2 95 8 111 13 17 6 52 11 79 11 48 1 52 -2 98
-50z m-754 -58 c2 -41 -1 -78 -6 -83 -25 -25 -82 43 -82 97 0 32 35 67 63 63
20 -3 22 -10 25 -77z m4399 -62 c29 -11 309 -52 353 -52 14 0 52 6 85 13 33 7
85 10 117 6 65 -6 207 -56 243 -84 17 -13 49 -22 96 -27 45 -5 76 -13 87 -24
35 -36 95 -62 156 -68 59 -5 63 -8 123 -68 54 -55 102 -122 219 -307 14 -22
60 -61 111 -96 49 -33 107 -81 131 -108 23 -27 84 -95 135 -150 98 -108 169
-216 165 -249 -4 -29 -82 -65 -140 -65 -60 0 -125 25 -134 53 -8 26 14 43 66
52 60 10 69 28 40 82 -22 41 -95 116 -148 151 -21 14 -27 13 -57 -1 -21 -10
-37 -26 -41 -41 -3 -14 -21 -34 -40 -45 -27 -16 -36 -31 -50 -78 -9 -32 -20
-62 -24 -66 -4 -5 -32 -1 -61 8 -39 12 -127 20 -319 28 -383 16 -445 15 -468
-6 -10 -9 -33 -17 -50 -17 -18 0 -32 -4 -32 -10 0 -5 -15 -10 -34 -10 -19 0
-38 -4 -41 -10 -3 -5 -19 -10 -34 -10 -16 0 -42 -7 -57 -15 -18 -9 -57 -15
-100 -15 -38 0 -75 -5 -81 -11 -10 -10 -258 -42 -303 -40 -8 1 -98 5 -200 9
-157 7 -192 11 -232 29 -58 26 -61 46 -21 119 l28 49 0 240 c0 232 1 242 24
293 19 42 37 63 87 98 85 61 111 93 232 288 109 174 112 177 169 155z m-3880
-438 c43 -22 94 -42 114 -45 43 -7 93 -40 174 -113 l57 -51 2 -67 1 -67 -73
-66 c-42 -40 -77 -80 -83 -100 -17 -51 -55 -64 -204 -72 -102 -5 -133 -3 -145
7 -13 12 -15 55 -12 296 1 155 5 290 8 300 9 30 74 21 161 -22z m3249 -312
c18 -30 21 -90 10 -196 -12 -106 -15 -117 -39 -135 -14 -10 -31 -34 -37 -53
-15 -46 -165 -160 -281 -214 -86 -41 -211 -70 -242 -58 -14 5 -17 20 -17 80 0
87 13 104 100 131 70 22 125 54 200 117 54 45 60 53 60 88 0 24 13 63 35 106
30 56 45 73 90 100 79 48 107 56 121 34z m2338 -329 c9 -38 -6 -54 -40 -43
-25 9 -29 15 -28 48 1 20 8 41 15 46 17 10 46 -16 53 -51z m-5199 -92 c17 -32
34 -58 39 -58 5 0 23 -11 40 -23 17 -13 58 -39 91 -57 33 -18 69 -40 80 -50
11 -10 40 -20 64 -24 24 -4 62 -20 85 -36 26 -19 72 -37 126 -49 47 -11 105
-27 130 -36 25 -9 95 -20 156 -24 118 -9 151 -21 198 -70 16 -16 58 -47 94
-68 39 -23 126 -96 220 -186 86 -81 185 -168 221 -192 37 -24 84 -62 106 -85
22 -23 74 -65 115 -93 41 -28 78 -55 82 -61 24 -36 -78 -137 -157 -155 -62
-14 -85 -35 -85 -76 0 -63 69 -106 174 -109 67 -1 71 -2 80 -28 6 -18 6 -38 0
-55 -8 -23 -18 -30 -54 -37 -25 -4 -110 -23 -190 -42 -192 -44 -236 -53 -360
-69 -62 -8 -129 -23 -165 -38 -84 -36 -262 -60 -423 -58 -108 1 -137 -2 -158
-15 -19 -13 -62 -19 -188 -24 -99 -5 -172 -12 -186 -20 -17 -9 -86 -14 -224
-15 -142 -2 -214 -7 -246 -17 -29 -9 -76 -13 -134 -11 -56 1 -95 -2 -103 -9
-9 -7 -42 -9 -102 -5 -60 5 -105 2 -142 -7 -54 -14 -355 -30 -480 -27 -42 2
-81 -4 -104 -13 -27 -12 -42 -13 -56 -5 -11 5 -25 6 -32 2 -6 -4 -50 -11 -97
-14 -47 -3 -123 -12 -168 -20 -76 -12 -86 -12 -114 4 -17 10 -51 17 -78 17
-47 0 -52 3 -129 74 -57 54 -89 77 -115 82 -20 3 -42 15 -50 25 -7 11 -42 38
-77 60 -35 23 -91 64 -124 92 -33 27 -77 58 -98 67 -20 9 -63 45 -94 79 -31
35 -73 74 -94 87 -21 13 -66 61 -100 106 -34 46 -117 137 -185 203 -137 134
-325 355 -413 486 -126 187 -194 387 -161 473 l11 29 152 -6 c125 -4 170 -10
252 -33 55 -15 114 -27 130 -26 17 1 125 1 240 1 190 -1 215 1 263 20 46 18
75 21 235 22 100 1 209 -2 242 -6 46 -5 70 -3 99 9 27 11 71 16 150 16 83 1
125 5 166 20 43 15 82 19 180 20 69 0 136 -3 149 -7 22 -5 23 -9 17 -57 -5
-40 -13 -57 -36 -76 -16 -14 -35 -39 -40 -56 -7 -20 -28 -43 -60 -63 -28 -18
-77 -55 -109 -82 -36 -30 -79 -56 -108 -64 -27 -8 -73 -33 -103 -55 -29 -22
-65 -40 -79 -40 -14 0 -60 -16 -100 -35 -64 -29 -78 -40 -98 -77 -30 -58 -29
-73 12 -128 36 -48 52 -60 84 -60 10 0 31 -10 47 -22 30 -24 38 -27 239 -83
218 -61 257 -65 600 -65 171 0 333 0 360 0 28 -1 122 2 210 5 124 6 168 11
195 25 42 21 83 28 250 39 99 7 155 18 267 50 164 47 182 55 241 94 74 50 104
153 67 231 -13 28 -25 36 -75 49 -33 10 -71 17 -85 17 -13 0 -58 22 -99 49
-47 31 -98 54 -141 65 -81 20 -153 60 -258 143 -44 35 -98 68 -119 73 -39 11
-103 68 -113 101 -9 26 27 73 70 93 19 9 59 20 88 23 28 3 66 12 82 19 55 25
77 15 110 -48z m-880 32 c4 -6 25 -20 48 -32 58 -29 138 -30 197 -1 50 26 63
18 49 -30 -18 -63 -74 -97 -159 -97 -64 0 -109 19 -143 59 -34 41 -38 111 -6
111 4 0 11 -5 14 -10z m2987 -3 l98 -12 4 -1080 c5 -1333 2 -1285 112 -1456
24 -38 72 -128 108 -201 55 -113 79 -149 156 -238 50 -58 98 -117 106 -132 8
-15 35 -42 61 -59 26 -18 76 -62 111 -98 61 -63 64 -67 58 -104 -15 -91 -75
-149 -159 -154 -29 -1 -107 -9 -175 -16 -79 -9 -138 -11 -168 -6 -38 7 -63 3
-160 -26 -106 -32 -126 -35 -242 -35 -108 0 -133 -3 -165 -20 -51 -27 -128
-26 -271 5 -75 16 -148 25 -208 25 -51 1 -111 5 -133 10 -22 5 -71 16 -110 25
-38 8 -83 24 -99 33 -66 39 -73 109 -14 140 17 9 51 35 74 57 23 22 65 58 94
80 29 22 81 82 120 136 38 53 92 116 120 139 29 24 101 105 160 179 60 75 129
153 153 173 37 30 49 51 72 115 15 43 38 103 51 133 23 54 23 64 34 595 5 297
10 825 10 1173 l0 632 53 -1 c28 0 96 -6 149 -12z m-2512 -153 c30 -30 109
-92 174 -136 66 -45 138 -98 159 -117 39 -35 76 -52 247 -113 47 -17 99 -41
116 -53 16 -13 68 -37 115 -53 81 -28 84 -31 87 -63 7 -69 -63 -143 -147 -155
-25 -4 -107 -25 -181 -46 -103 -30 -159 -40 -235 -44 -101 -5 -201 -21 -220
-35 -6 -5 -20 -8 -30 -8 -11 -1 -60 -6 -110 -12 -113 -13 -529 -14 -827 -1
-201 8 -231 11 -267 31 -27 14 -60 21 -94 21 -31 0 -61 6 -73 15 -10 8 -36 15
-56 15 -26 0 -47 8 -70 29 -18 15 -57 36 -85 45 -79 26 -97 45 -89 89 8 41 35
59 136 92 73 23 129 52 160 81 14 12 43 27 66 32 24 5 64 28 95 54 31 24 109
77 175 118 193 118 242 152 253 177 6 14 23 26 40 29 16 4 40 17 52 30 30 32
42 30 92 -15 36 -33 51 -39 107 -46 132 -16 173 -13 219 20 24 16 47 39 52 52
7 18 16 23 47 23 33 0 45 -7 92 -56z m2253 -293 c5 -5 7 -82 5 -178 -3 -134
-7 -174 -21 -200 -21 -40 -63 -73 -92 -73 -29 0 -92 46 -185 134 -41 39 -91
84 -111 99 -46 34 -87 93 -100 141 -13 46 7 82 48 90 47 8 446 -3 456 -13z
m11 -867 c17 -45 2 -94 -29 -94 -32 0 -37 12 -29 65 5 38 10 45 29 45 13 0 26
-7 29 -16z m-106 -71 c-4 -22 -22 -20 -26 1 -2 10 3 16 13 16 10 0 15 -7 13
-17z m997 -744 c117 -21 128 -29 208 -158 41 -64 104 -168 142 -231 86 -146
186 -287 262 -370 33 -36 69 -83 81 -105 11 -22 48 -78 81 -124 34 -46 61 -87
61 -90 0 -21 -34 -51 -58 -50 -15 0 -52 -9 -82 -20 -30 -11 -69 -20 -86 -21
-27 0 -111 -31 -166 -61 -23 -12 -100 -12 -132 1 -15 5 -31 20 -37 34 -6 13
-22 29 -34 34 -13 6 -61 44 -105 84 -45 40 -98 85 -117 99 -20 14 -43 39 -52
56 -9 16 -33 44 -53 62 -63 55 -231 332 -269 444 -30 88 -23 180 19 263 67
133 177 183 337 153z m-1410 -58 c154 -14 350 -67 418 -113 24 -17 27 -25 27
-76 -1 -81 -28 -152 -66 -177 -17 -11 -48 -45 -68 -76 -20 -31 -83 -107 -139
-169 -56 -61 -128 -142 -160 -178 -32 -37 -70 -73 -85 -81 -15 -8 -46 -31 -69
-52 -24 -22 -46 -39 -51 -39 -5 0 -41 -25 -81 -55 -40 -30 -84 -58 -97 -61
-30 -8 -101 -104 -110 -149 -4 -21 0 -43 9 -62 24 -45 107 -133 126 -133 9 0
21 -4 27 -10 5 -5 43 -14 84 -20 87 -12 110 -18 110 -30 0 -4 -18 -24 -41 -45
-38 -34 -88 -60 -304 -159 -43 -21 -97 -52 -120 -70 -22 -18 -58 -36 -80 -40
-22 -4 -67 -20 -100 -36 -60 -28 -139 -40 -306 -45 -36 -2 -74 -7 -85 -12 -28
-15 -168 -28 -254 -24 -93 4 -227 5 -260 1 -28 -3 -302 50 -389 76 -118 34
-231 113 -231 161 0 31 41 153 80 239 16 36 54 92 83 125 34 37 78 105 115
177 34 64 75 130 92 145 16 16 30 35 30 42 0 7 24 32 53 56 28 24 87 83 131
132 43 48 95 99 116 112 21 13 41 33 45 44 3 10 50 59 103 109 55 50 136 141
184 204 104 136 200 231 265 261 46 21 60 22 328 22 272 1 473 9 484 21 3 3
26 3 51 -1 25 -3 86 -10 135 -14z m2739 -1163 c25 -18 66 -46 91 -62 57 -35
85 -78 85 -129 0 -42 -22 -92 -44 -100 -8 -3 -17 -26 -21 -54 -11 -76 -24 -89
-102 -102 -114 -18 -270 -31 -380 -31 -57 0 -112 -4 -122 -9 -26 -14 -349 -43
-501 -44 -107 -1 -145 2 -184 16 -27 10 -70 17 -95 17 -25 -1 -65 4 -88 11
-36 11 -56 10 -137 -5 -89 -17 -98 -17 -171 -1 -57 13 -99 16 -163 11 -48 -3
-157 -10 -242 -15 -85 -6 -173 -14 -195 -20 -22 -6 -71 -11 -108 -11 -49 0
-84 -7 -127 -25 -41 -17 -95 -29 -168 -36 -73 -7 -123 -18 -157 -34 -56 -26
-323 -71 -337 -57 -16 16 29 43 93 54 35 6 95 26 134 46 48 24 93 37 143 44
77 9 205 55 255 90 19 14 53 23 96 28 39 4 106 22 166 45 92 36 111 39 240 46
78 5 190 18 254 32 91 19 125 22 164 15 36 -7 60 -5 95 6 26 8 134 24 240 36
195 21 222 26 222 40 0 4 42 10 94 13 88 5 96 7 140 40 34 27 65 40 123 52 43
9 86 20 95 26 10 5 24 9 31 9 8 0 42 12 77 26 83 33 203 56 256 48 24 -3 50
-1 61 5 10 6 46 11 80 11 55 0 68 -4 107 -32z m-3186 -670 c-3 -7 -11 -13 -18
-13 -7 0 -15 6 -17 13 -3 7 4 12 17 12 13 0 20 -5 18 -12z m-48 -12 c0 -18
-17 -29 -30 -21 -8 5 -7 11 1 21 15 18 29 18 29 0z"/>
<path d="M5660 11462 c0 -18 18 -32 42 -32 5 0 8 10 6 23 -4 29 -48 38 -48 9z"/>
<path d="M6277 10913 c-13 -13 -7 -53 8 -53 21 0 37 34 23 48 -14 14 -22 15
-31 5z"/>
<path d="M6411 10796 c-20 -24 -9 -51 22 -54 27 -3 28 -1 25 30 -3 36 -27 48
-47 24z"/>
<path d="M5947 10787 c-7 -19 15 -39 35 -32 9 4 29 -6 47 -20 49 -42 84 -14
44 34 -24 27 -117 41 -126 18z"/>
<path d="M6160 10745 c-14 -17 -5 -45 17 -52 16 -6 44 27 41 46 -4 22 -42 26
-58 6z"/>
<path d="M6552 10741 c-20 -12 -12 -85 10 -89 22 -4 42 42 33 75 -6 24 -20 29
-43 14z"/>
<path d="M6283 10723 c-7 -3 -13 -18 -13 -35 0 -25 3 -29 23 -26 17 2 21 9 19
28 -3 29 -12 39 -29 33z"/>
<path d="M6397 10608 c-8 -29 -1 -38 29 -38 29 0 31 20 6 43 -24 22 -29 21
-35 -5z"/>
<path d="M6182 10558 c-8 -8 -8 -17 -1 -30 10 -19 12 -19 30 -2 10 9 19 23 19
31 0 16 -32 17 -48 1z"/>
<path d="M6024 10545 c-8 -20 2 -45 19 -45 14 0 54 37 46 44 -2 2 -16 6 -32
10 -20 5 -29 2 -33 -9z"/>
<path d="M6566 10537 c-27 -20 -19 -81 12 -85 20 -3 22 0 22 47 0 54 -5 59
-34 38z"/>
<path d="M6274 10497 c-10 -27 0 -62 19 -65 16 -3 18 2 15 34 -3 39 -24 57
-34 31z"/>
<path d="M6375 10460 c-7 -11 11 -50 23 -50 20 1 34 19 27 39 -6 21 -39 29
-50 11z"/>
<path d="M6040 10420 c0 -18 26 -40 49 -40 6 0 11 14 11 30 0 27 -3 30 -30 30
-23 0 -30 -4 -30 -20z"/>
<path d="M6215 10340 c-23 -25 -8 -46 25 -35 14 5 20 13 18 28 -4 28 -21 31
-43 7z"/>
<path d="M6542 10298 c2 -25 8 -33 23 -33 16 0 20 7 20 30 0 24 -5 31 -23 33
-21 3 -23 0 -20 -30z"/>
<path d="M6320 10290 c0 -34 14 -39 29 -12 7 13 6 23 -1 30 -19 19 -28 14 -28
-18z"/>
<path d="M6094 10285 c-14 -35 26 -70 51 -44 18 20 2 59 -25 59 -11 0 -23 -7
-26 -15z"/>
<path d="M6440 10205 c0 -22 4 -25 36 -25 29 0 35 3 30 16 -3 9 -6 20 -6 25 0
5 -13 9 -30 9 -25 0 -30 -4 -30 -25z"/>
<path d="M6557 10162 c-24 -26 -21 -42 7 -42 30 0 40 13 31 40 -8 25 -17 25
-38 2z"/>
<path d="M6170 10110 c-11 -11 -17 -26 -14 -35 4 -8 7 -15 8 -15 0 1 24 7 51
14 38 10 51 18 53 35 3 18 -1 21 -37 21 -28 0 -48 -7 -61 -20z"/>
<path d="M6394 10059 c-16 -18 -16 -21 -2 -36 20 -19 43 -12 51 16 8 32 -25
46 -49 20z"/>
<path d="M6530 9939 c0 -27 3 -30 28 -27 21 2 28 9 30 31 3 24 0 27 -27 27
-28 0 -31 -3 -31 -31z"/>
<path d="M6364 9895 c-7 -18 12 -45 32 -45 15 0 18 18 8 44 -8 20 -33 21 -40
1z"/>
<path d="M6190 9865 c0 -29 28 -45 41 -24 17 27 10 49 -16 49 -20 0 -25 -5
-25 -25z"/>
<path d="M6560 9815 c-10 -12 -10 -19 -1 -28 14 -14 44 2 49 27 4 21 -31 22
-48 1z"/>
<path d="M6372 9718 c-14 -14 -16 -58 -3 -58 5 0 16 -3 24 -6 21 -8 35 55 16
67 -18 12 -23 11 -37 -3z"/>
<path d="M6552 9688 c-18 -18 -15 -36 9 -49 26 -14 42 0 37 32 -3 27 -27 36
-46 17z"/>
<path d="M6230 9666 c0 -31 30 -43 47 -20 21 29 15 44 -17 44 -25 0 -30 -4
-30 -24z"/>
<path d="M6430 9465 c-18 -21 -5 -45 24 -45 33 0 42 17 20 41 -21 23 -28 24
-44 4z"/>
<path d="M6557 9453 c-12 -11 -7 -53 6 -53 20 0 57 30 57 46 0 14 -50 20 -63
7z"/>
<path d="M6254 9426 c-8 -21 3 -49 16 -41 5 3 10 15 10 25 0 25 -18 36 -26 16z"/>
<path d="M6437 9314 c-15 -15 -7 -54 11 -54 32 0 48 17 36 37 -12 20 -36 28
-47 17z"/>
<path d="M6115 9229 c-13 -19 4 -59 25 -59 37 0 25 69 -12 70 -4 0 -10 -5 -13
-11z"/>
<path d="M6547 9233 c-13 -12 -7 -41 10 -47 18 -7 43 17 43 41 0 13 -41 18
-53 6z"/>
<path d="M6284 9205 c-4 -9 -2 -21 4 -27 15 -15 44 -1 40 19 -4 23 -36 29 -44
8z"/>
<path d="M6447 9143 c-10 -9 -8 -51 2 -57 5 -3 19 2 31 12 21 17 21 19 5 35
-18 18 -28 21 -38 10z"/>
<path d="M5352 9088 c2 -19 10 -24 41 -26 35 -3 38 -1 35 20 -2 19 -10 24 -41
26 -35 3 -38 1 -35 -20z"/>
<path d="M6121 9031 c-17 -11 -8 -39 15 -48 8 -3 23 1 31 10 13 13 14 19 3 31
-14 18 -28 20 -49 7z"/>
<path d="M5520 9015 c-15 -18 -6 -45 14 -45 16 0 31 34 21 50 -9 14 -21 12
-35 -5z"/>
<path d="M5113 8983 c-18 -7 -16 -50 3 -57 22 -8 22 -8 34 13 18 35 -2 59 -37
44z"/>
<path d="M6493 8964 c-3 -8 -1 -20 5 -26 16 -16 47 -5 50 20 3 18 -1 22 -23
22 -14 0 -28 -7 -32 -16z"/>
<path d="M6253 8953 c-16 -6 -17 -49 -3 -58 16 -10 41 16 38 38 -3 22 -15 28
-35 20z"/>
<path d="M5770 8919 c-9 -15 -8 -24 1 -35 25 -30 53 -7 42 35 -7 27 -29 27
-43 0z"/>
<path d="M5338 8893 c-10 -2 -18 -13 -18 -23 0 -20 51 -45 75 -36 20 7 19 36
-2 52 -19 14 -26 15 -55 7z"/>
<path d="M5987 8876 c-7 -16 1 -26 20 -26 7 0 13 9 13 20 0 23 -25 27 -33 6z"/>
<path d="M6372 8838 c-18 -18 -15 -48 6 -48 27 0 44 16 40 36 -4 23 -29 29
-46 12z"/>
<path d="M4897 8743 c-4 -3 -7 -15 -7 -25 0 -14 8 -18 36 -18 29 0 35 3 30 16
-3 9 -6 20 -6 25 0 10 -43 12 -53 2z"/>
<path d="M6497 8744 c-14 -15 -6 -44 15 -55 18 -10 24 -8 35 7 7 10 12 25 11
34 -3 16 -49 26 -61 14z"/>
<path d="M6114 8705 c-7 -18 3 -35 21 -35 12 0 25 21 25 41 0 15 -40 10 -46
-6z"/>
<path d="M5523 8673 c-16 -6 -17 -39 -2 -49 16 -9 41 20 33 39 -6 18 -10 19
-31 10z"/>
<path d="M6302 8658 c4 -31 53 -34 53 -3 0 15 -8 21 -28 23 -25 3 -28 0 -25
-20z"/>
<path d="M5904 8655 c-8 -20 4 -35 27 -35 14 0 19 7 19 25 0 18 -5 25 -20 25
-11 0 -23 -7 -26 -15z"/>
<path d="M5060 8607 c0 -7 6 -22 14 -33 15 -19 15 -19 37 2 12 12 18 27 15 33
-10 16 -66 14 -66 -2z"/>
<path d="M5370 8568 c0 -22 22 -38 53 -38 24 0 28 4 25 23 -2 18 -10 23 -40
25 -27 2 -38 -1 -38 -10z"/>
<path d="M6484 8555 c-9 -23 3 -45 25 -45 19 0 41 26 41 49 0 17 -60 13 -66
-4z"/>
<path d="M5726 8474 c-9 -22 1 -34 30 -34 25 0 28 7 18 34 -8 21 -40 21 -48 0z"/>
<path d="M4787 8443 c-10 -16 13 -53 32 -53 20 0 37 32 26 50 -7 12 -52 14
-58 3z"/>
<path d="M6105 8439 c-4 -5 1 -19 11 -30 17 -19 19 -19 31 -3 7 10 13 24 13
31 0 16 -46 18 -55 2z"/>
<path d="M6327 8444 c-14 -14 -7 -43 13 -54 23 -12 35 4 28 37 -3 18 -29 29
-41 17z"/>
<path d="M6514 8336 c-7 -31 1 -46 26 -46 25 0 32 13 24 45 -8 33 -41 34 -50
1z"/>
<path d="M5036 8331 c-8 -13 20 -45 32 -37 20 12 14 46 -7 46 -11 0 -22 -4
-25 -9z"/>
<path d="M5437 8253 c-4 -3 -7 -19 -7 -35 0 -33 24 -38 40 -9 17 32 -10 68
-33 44z"/>
<path d="M4552 8241 c-22 -14 -9 -44 21 -52 36 -10 47 13 22 41 -20 22 -24 23
-43 11z"/>
<path d="M4400 8200 c-11 -7 -12 -14 -4 -27 15 -24 33 -28 40 -8 9 23 -16 47
-36 35z"/>
<path d="M4755 8200 c-3 -5 -1 -19 5 -31 l12 -21 24 23 c13 12 21 26 18 30 -7
12 -51 11 -59 -1z"/>
<path d="M6340 8179 c0 -19 21 -50 31 -44 5 4 9 17 9 31 0 17 -5 24 -20 24
-11 0 -20 -5 -20 -11z"/>
<path d="M6516 8144 c-10 -27 -7 -34 18 -34 22 0 36 16 36 41 0 16 -48 10 -54
-7z"/>
<path d="M5940 8135 c-16 -19 -6 -45 18 -45 28 0 43 20 31 42 -12 22 -32 23
-49 3z"/>
<path d="M6180 8110 c0 -35 19 -39 46 -9 16 17 16 22 4 29 -31 20 -50 11 -50
-20z"/>
<path d="M5724 8086 c-9 -24 4 -48 23 -44 12 2 18 12 18 28 0 29 -32 41 -41
16z"/>
<path d="M4394 8046 c-8 -21 15 -58 34 -54 21 4 29 48 10 59 -20 13 -38 11
-44 -5z"/>
<path d="M4227 8043 c-15 -14 -6 -40 17 -51 17 -7 27 -7 35 1 18 18 13 37 -15
47 -30 12 -29 12 -37 3z"/>
<path d="M4550 8000 c0 -27 30 -42 53 -25 25 18 11 45 -24 45 -22 0 -29 -5
-29 -20z"/>
<path d="M4776 8001 c-11 -18 6 -41 30 -41 17 0 24 6 24 19 0 25 -42 42 -54
22z"/>
<path d="M6530 7955 c0 -39 6 -42 37 -20 28 20 20 55 -13 55 -21 0 -24 -5 -24
-35z"/>
<path d="M6292 7968 c-7 -7 -12 -20 -12 -30 0 -13 8 -18 30 -18 30 0 37 11 24
44 -7 19 -25 21 -42 4z"/>
<path d="M5460 7944 c0 -21 4 -25 23 -22 14 2 23 11 25 26 3 18 -1 22 -22 22
-21 0 -26 -5 -26 -26z"/>
<path d="M6172 7958 c-21 -21 -13 -38 18 -38 25 0 30 4 30 25 0 27 -26 35 -48
13z"/>
<path d="M5925 7919 c-4 -12 -2 -26 4 -32 16 -16 45 3 49 32 5 30 -44 30 -53
0z"/>
<path d="M4210 7870 c0 -23 5 -31 24 -36 31 -8 47 2 39 24 -16 46 -63 55 -63
12z"/>
<path d="M4395 7870 c-3 -11 -3 -24 0 -30 16 -26 60 4 49 34 -9 22 -41 20 -49
-4z"/>
<path d="M5710 7837 c0 -29 12 -47 32 -47 30 0 21 54 -9 58 -15 2 -23 -2 -23
-11z"/>
<path d="M6475 7820 c-9 -28 2 -40 36 -40 26 0 29 3 29 30 0 27 -3 30 -29 30
-21 0 -32 -6 -36 -20z"/>
<path d="M4550 7817 c0 -21 37 -50 55 -43 10 3 15 15 13 28 -2 18 -11 24 -35
26 -23 2 -33 -1 -33 -11z"/>
<path d="M6080 7806 c0 -14 4 -27 9 -30 18 -11 41 6 41 30 0 19 -5 24 -25 24
-20 0 -25 -5 -25 -24z"/>
<path d="M4072 7799 c4 -30 33 -48 50 -31 17 17 -1 46 -31 50 -18 3 -22 -1
-19 -19z"/>
<path d="M6241 7786 c-26 -27 -22 -60 5 -54 26 5 39 33 28 58 l-9 21 -24 -25z"/>
<path d="M6366 7784 c-9 -22 1 -34 30 -34 19 0 24 5 24 25 0 20 -5 25 -24 25
-13 0 -27 -7 -30 -16z"/>
<path d="M5949 7760 c-24 -20 -24 -20 -5 -35 11 -8 25 -15 32 -15 20 0 28 40
12 57 -13 12 -18 11 -39 -7z"/>
<path d="M3770 7737 c0 -7 6 -21 13 -31 12 -16 14 -16 26 -2 7 9 11 23 7 31
-7 18 -46 20 -46 2z"/>
<path d="M4200 7712 c0 -25 19 -42 47 -42 19 0 23 5 23 30 0 28 -3 30 -35 30
-27 0 -35 -4 -35 -18z"/>
<path d="M4872 7708 c-20 -20 -14 -40 11 -36 14 2 22 10 22 22 0 24 -16 31
-33 14z"/>
<path d="M3902 7653 c4 -36 37 -42 63 -13 16 18 17 23 5 30 -8 6 -28 10 -43
10 -25 0 -28 -3 -25 -27z"/>
<path d="M4372 7663 c2 -10 13 -19 26 -21 17 -3 22 2 22 17 0 16 -6 21 -26 21
-19 0 -25 -5 -22 -17z"/>
<path d="M5490 7663 c0 -10 5 -25 10 -33 9 -13 12 -12 25 4 22 29 18 46 -10
46 -17 0 -25 -5 -25 -17z"/>
<path d="M4065 7661 c-8 -14 16 -61 32 -61 8 0 13 12 13 35 0 28 -4 35 -19 35
-11 0 -22 -4 -26 -9z"/>
<path d="M5694 7646 c-9 -24 4 -48 23 -44 12 2 18 12 18 28 0 29 -32 41 -41
16z"/>
<path d="M4585 7641 c-8 -15 14 -53 28 -48 18 6 15 51 -5 55 -9 2 -19 -2 -23
-7z"/>
<path d="M6272 7638 c-13 -13 -16 -41 -5 -51 10 -10 33 13 33 34 0 23 -14 31
-28 17z"/>
<path d="M6357 7643 c-4 -3 -7 -19 -7 -35 0 -23 4 -28 25 -28 22 0 25 4 25 35
0 27 -4 35 -18 35 -10 0 -22 -3 -25 -7z"/>
<path d="M6483 7632 c-27 -3 -33 -7 -33 -28 0 -21 5 -24 35 -24 22 0 38 6 41
14 10 25 -9 41 -43 38z"/>
<path d="M3769 7596 c-14 -31 -5 -59 18 -54 13 2 18 13 18 37 0 42 -21 52 -36
17z"/>
<path d="M4372 7528 c2 -25 8 -34 26 -36 16 -3 22 2 22 16 0 34 -11 52 -32 52
-16 0 -19 -6 -16 -32z"/>
<path d="M4232 7542 c-17 -3 -22 -9 -20 -25 2 -17 11 -23 36 -25 22 -2 32 1
32 10 0 24 -24 44 -48 40z"/>
<path d="M4050 7529 c0 -20 21 -49 35 -49 19 0 27 16 20 40 -7 21 -55 29 -55
9z"/>
<path d="M4500 7525 c-20 -24 -6 -42 29 -37 46 6 38 52 -9 52 -4 0 -13 -7 -20
-15z"/>
<path d="M3880 7492 c0 -15 25 -40 47 -46 16 -5 23 -2 28 15 5 14 2 25 -6 30
-18 11 -69 12 -69 1z"/>
<path d="M3754 7464 c-9 -35 18 -63 40 -44 19 15 21 41 4 58 -19 19 -37 14
-44 -14z"/>
<path d="M4032 7388 c4 -31 53 -34 53 -3 0 15 -8 21 -28 23 -25 3 -28 0 -25
-20z"/>
<path d="M4130 7365 c0 -15 6 -25 14 -25 22 0 30 19 16 35 -18 22 -30 18 -30
-10z"/>
<path d="M3746 7284 c-5 -19 -2 -30 11 -39 16 -12 20 -11 30 8 20 36 16 57
-11 57 -17 0 -26 -7 -30 -26z"/>
<path d="M3877 7284 c-12 -13 -8 -42 8 -48 25 -9 46 5 43 28 -3 21 -37 34 -51
20z"/>
<path d="M3711 7146 c-9 -10 -6 -17 13 -30 14 -9 32 -16 40 -16 16 0 31 34 21
50 -9 15 -61 12 -74 -4z"/>
<path d="M3797 10763 c-4 -3 -7 -15 -7 -25 0 -30 54 -21 58 10 3 17 -1 22 -21
22 -13 0 -27 -3 -30 -7z"/>
<path d="M3887 10703 c-11 -10 -8 -48 4 -60 6 -6 19 -8 30 -6 20 6 36 41 22
53 -13 12 -49 21 -56 13z"/>
<path d="M4030 10685 c0 -20 5 -25 24 -25 14 0 27 4 30 9 11 18 -6 41 -30 41
-19 0 -24 -5 -24 -25z"/>
<path d="M4680 10686 c0 -21 29 -48 49 -44 10 2 16 13 16 28 0 21 -5 26 -32
28 -24 2 -33 -1 -33 -12z"/>
<path d="M4427 10661 c-3 -12 3 -27 14 -37 15 -14 21 -15 34 -4 24 20 15 54
-16 58 -19 2 -28 -2 -32 -17z"/>
<path d="M3762 10658 c-18 -18 -14 -46 8 -58 17 -9 22 -7 31 14 20 43 -8 75
-39 44z"/>
<path d="M4267 10633 c-15 -14 -5 -33 24 -49 29 -15 33 -15 48 1 15 15 14 18
-8 36 -23 19 -52 25 -64 12z"/>
<path d="M4547 10633 c-4 -3 -7 -19 -7 -35 0 -25 3 -28 35 -28 38 0 40 5 25
44 -9 25 -38 35 -53 19z"/>
<path d="M4120 10602 c0 -11 7 -25 15 -32 21 -18 47 -5 43 22 -4 31 -58 40
-58 10z"/>
<path d="M3979 10574 c-24 -25 -24 -26 -5 -40 30 -22 66 -18 66 7 0 24 -17 59
-29 59 -4 0 -18 -12 -32 -26z"/>
<path d="M3816 10534 c-12 -32 -6 -44 23 -44 30 0 50 28 36 50 -10 16 -52 12
-59 -6z"/>
<path d="M4219 10509 c-13 -26 -4 -37 39 -45 29 -6 32 -4 32 19 0 44 -51 62
-71 26z"/>
<path d="M4385 10490 c-6 -20 9 -50 25 -50 10 0 31 50 25 61 -11 17 -44 9 -50
-11z"/>
<path d="M4082 10468 c-18 -18 -14 -46 8 -58 17 -9 22 -7 32 14 8 20 8 29 -2
41 -15 18 -22 19 -38 3z"/>
<path d="M3928 10453 c-21 -5 -21 -4 -8 -37 14 -37 80 -34 80 3 0 34 -26 46
-72 34z"/>
<path d="M4164 10365 c-9 -22 22 -53 37 -38 15 15 7 47 -14 51 -9 2 -20 -4
-23 -13z"/>
<path d="M3760 10346 c0 -32 12 -39 44 -26 44 17 28 50 -25 50 -13 0 -19 -7
-19 -24z"/>
<path d="M3860 10270 c0 -23 5 -31 25 -36 28 -7 55 0 55 16 0 17 -39 50 -60
50 -16 0 -20 -7 -20 -30z"/>
<path d="M4016 10277 c-10 -7 -15 -19 -11 -29 9 -23 30 -29 50 -14 14 10 15
16 6 34 -14 25 -21 27 -45 9z"/>
<path d="M4127 10229 c-21 -12 -22 -29 -2 -55 13 -16 16 -17 25 -4 12 18 13
57 2 64 -4 2 -15 0 -25 -5z"/>
<path d="M3140 9745 c-18 -21 -5 -45 24 -45 30 0 40 13 31 40 -7 24 -37 26
-55 5z"/>
<path d="M2731 9731 c-16 -28 -14 -31 15 -31 20 0 25 4 22 22 -4 29 -24 34
-37 9z"/>
<path d="M2957 9731 c-5 -21 9 -41 30 -41 14 0 17 18 7 44 -8 22 -31 20 -37
-3z"/>
<path d="M3574 9736 c-7 -19 13 -56 31 -56 7 0 20 -3 28 -6 10 -3 20 3 28 17
10 20 9 25 -11 41 -27 22 -68 24 -76 4z"/>
<path d="M3340 9720 c-13 -25 -5 -40 20 -40 30 0 43 33 19 48 -25 16 -26 15
-39 -8z"/>
<path d="M2312 9718 c-16 -16 3 -38 34 -38 27 0 28 3 14 31 -12 22 -30 25 -48
7z"/>
<path d="M2200 9696 c0 -29 17 -43 33 -27 8 8 9 16 1 28 -17 27 -34 27 -34 -1z"/>
<path d="M2007 9683 c-4 -3 -7 -15 -7 -25 0 -13 7 -18 25 -18 26 0 29 7 19 34
-6 16 -26 21 -37 9z"/>
<path d="M2612 9638 c5 -34 38 -37 38 -4 0 20 -5 26 -21 26 -15 0 -20 -5 -17
-22z"/>
<path d="M2430 9621 c0 -22 16 -36 24 -22 8 12 -3 41 -15 41 -5 0 -9 -9 -9
-19z"/>
<path d="M1904 9586 c-9 -22 2 -46 21 -46 12 0 15 8 13 27 -3 30 -25 42 -34
19z"/>
<path d="M2160 9560 c0 -19 5 -30 14 -30 20 0 29 16 21 40 -10 32 -35 25 -35
-10z"/>
<path d="M2722 9560 c-15 -25 -8 -40 19 -40 16 0 20 6 17 27 -4 33 -19 39 -36
13z"/>
<path d="M1765 9550 c-8 -12 24 -41 40 -36 6 1 10 11 10 22 0 21 -39 32 -50
14z"/>
<path d="M2330 9496 c0 -29 10 -38 30 -26 11 7 12 14 4 27 -17 27 -34 27 -34
-1z"/>
<path d="M1487 9476 c-12 -10 -17 -24 -15 -43 3 -25 7 -28 33 -25 44 5 52 18
33 49 -20 33 -28 36 -51 19z"/>
<path d="M1222 9457 l-22 -24 21 -19 c21 -19 21 -19 40 5 14 17 16 27 9 42
-14 25 -22 24 -48 -4z"/>
<path d="M2005 9460 c-8 -13 3 -68 16 -75 15 -10 35 44 23 63 -13 20 -30 26
-39 12z"/>
<path d="M1625 9450 c-9 -15 5 -52 18 -47 19 6 21 57 3 57 -8 0 -18 -5 -21
-10z"/>
<path d="M2494 9439 c-10 -16 5 -59 21 -59 19 0 28 16 20 39 -7 22 -32 35 -41
20z"/>
<path d="M1060 9410 c0 -5 5 -10 11 -10 5 0 7 5 4 10 -3 6 -8 10 -11 10 -2 0
-4 -4 -4 -10z"/>
<path d="M1803 9404 c-8 -21 13 -42 28 -27 13 13 5 43 -11 43 -6 0 -13 -7 -17
-16z"/>
<path d="M1336 9374 c-8 -21 1 -34 24 -34 10 0 21 4 24 9 10 16 -5 41 -24 41
-10 0 -21 -7 -24 -16z"/>
<path d="M1165 9350 c-10 -16 14 -50 35 -50 25 0 30 10 19 38 -9 22 -43 30
-54 12z"/>
<path d="M1056 9337 c-15 -11 -17 -17 -7 -35 20 -38 61 -21 61 25 0 26 -25 31
-54 10z"/>
<path d="M1495 9331 c-8 -26 4 -51 26 -51 22 0 27 38 7 58 -17 17 -26 15 -33
-7z"/>
<path d="M2137 9324 c-16 -16 -7 -44 14 -44 15 0 20 5 17 22 -3 22 -19 33 -31
22z"/>
<path d="M1322 9248 c-22 -22 -14 -40 16 -36 33 4 47 48 15 48 -11 0 -24 -5
-31 -12z"/>
<path d="M1624 9245 c-15 -38 29 -62 55 -31 9 11 8 18 -4 30 -21 20 -44 21
-51 1z"/>
<path d="M1173 9233 c-21 -8 -15 -51 8 -64 17 -9 25 -8 37 5 13 12 13 20 4 41
-11 24 -23 29 -49 18z"/>
<path d="M994 9205 c-15 -23 -15 -28 -3 -36 20 -13 34 -6 37 20 6 38 -14 47
-34 16z"/>
<path d="M1462 9173 c2 -22 9 -29 31 -31 18 -2 29 2 33 12 9 22 -14 46 -43 46
-21 0 -24 -4 -21 -27z"/>
<path d="M1800 9160 c0 -25 4 -30 24 -30 29 0 47 37 25 51 -30 19 -49 10 -49
-21z"/>
<path d="M1275 9111 c-8 -26 4 -51 25 -51 28 0 33 16 14 45 -19 30 -31 32 -39
6z"/>
<path d="M1570 9085 c0 -22 4 -26 23 -23 14 2 22 10 22 23 0 13 -8 21 -22 23
-19 3 -23 -1 -23 -23z"/>
<path d="M1003 9093 c-16 -6 -17 -39 -2 -49 6 -3 17 0 25 8 12 11 12 17 2 30
-7 9 -19 14 -25 11z"/>
<path d="M1438 9093 c-32 -8 -17 -53 18 -53 20 0 24 5 24 30 0 30 -6 33 -42
23z"/>
<path d="M1117 9083 c-4 -3 -7 -17 -7 -30 0 -18 6 -23 24 -23 30 0 40 13 31
40 -6 19 -35 27 -48 13z"/>
<path d="M1742 8998 c4 -31 53 -34 53 -3 0 15 -8 21 -28 23 -25 3 -28 0 -25
-20z"/>
<path d="M1950 9001 c0 -22 29 -36 43 -22 15 15 0 41 -23 41 -13 0 -20 -7 -20
-19z"/>
<path d="M1362 8948 c-14 -14 -16 -54 -3 -63 12 -7 31 26 31 54 0 24 -10 27
-28 9z"/>
<path d="M1520 8941 c0 -10 9 -21 20 -24 16 -4 20 0 20 19 0 17 -6 24 -20 24
-13 0 -20 -7 -20 -19z"/>
<path d="M1621 8876 c-9 -10 -7 -19 9 -37 l19 -24 1 38 c0 39 -10 47 -29 23z"/>
<path d="M1822 8848 c4 -31 53 -34 53 -3 0 15 -8 21 -28 23 -25 3 -28 0 -25
-20z"/>
<path d="M8432 8818 c2 -17 11 -24 31 -26 18 -2 27 1 27 10 0 20 -21 38 -43
38 -13 0 -18 -6 -15 -22z"/>
<path d="M8607 8833 c-10 -10 -8 -51 2 -58 11 -6 31 26 31 49 0 16 -21 22 -33
9z"/>
<path d="M8792 8828 c-7 -7 -12 -22 -12 -35 0 -19 5 -23 30 -23 23 0 30 5 30
19 0 11 -7 27 -16 35 -19 19 -17 19 -32 4z"/>
<path d="M8227 8790 c-5 -21 16 -45 33 -35 5 3 10 17 10 31 0 30 -35 34 -43 4z"/>
<path d="M7664 8776 c-8 -21 -1 -49 13 -53 15 -5 36 34 29 53 -7 18 -35 18
-42 0z"/>
<path d="M8082 8758 c2 -17 8 -33 14 -35 16 -5 26 38 12 54 -18 22 -29 14 -26
-19z"/>
<path d="M7895 8770 c-9 -14 17 -50 37 -50 23 0 41 33 26 48 -14 14 -55 16
-63 2z"/>
<path d="M9150 8725 c0 -18 5 -25 20 -25 21 0 24 8 14 34 -10 25 -34 19 -34
-9z"/>
<path d="M7112 8673 c4 -32 38 -46 38 -16 0 20 -18 43 -33 43 -4 0 -7 -12 -5
-27z"/>
<path d="M7275 8690 c-10 -17 5 -49 25 -55 27 -8 40 2 40 30 0 30 -50 50 -65
25z"/>
<path d="M7760 8660 c0 -25 4 -30 25 -30 33 0 45 28 20 46 -30 22 -45 17 -45
-16z"/>
<path d="M6993 8664 c-9 -24 5 -44 32 -44 20 0 25 5 25 24 0 18 -7 25 -26 29
-16 3 -28 0 -31 -9z"/>
<path d="M6887 8663 c-13 -12 -7 -54 9 -60 24 -9 36 10 25 40 -10 27 -21 33
-34 20z"/>
<path d="M7404 8613 c-8 -29 6 -58 27 -58 18 0 24 52 8 71 -17 21 -28 17 -35
-13z"/>
<path d="M7560 8595 c0 -36 28 -44 52 -15 21 26 11 40 -29 40 -18 0 -23 -6
-23 -25z"/>
<path d="M7160 8591 c0 -23 14 -41 31 -41 14 0 19 7 19 25 0 20 -5 25 -25 25
-14 0 -25 -4 -25 -9z"/>
<path d="M6800 8555 c0 -27 6 -30 29 -16 12 8 12 12 2 25 -19 23 -31 20 -31
-9z"/>
<path d="M6986 8535 c-8 -32 -1 -45 25 -45 12 0 19 7 19 19 0 51 -33 70 -44
26z"/>
<path d="M7710 8505 c0 -17 5 -25 13 -22 6 2 12 12 12 22 0 10 -6 20 -12 23
-8 2 -13 -6 -13 -23z"/>
<path d="M7260 8465 c0 -32 3 -36 23 -33 17 2 22 10 22 33 0 23 -5 31 -22 33
-20 3 -23 -1 -23 -33z"/>
<path d="M1480 8665 c-12 -14 -11 -18 1 -26 23 -15 54 -6 54 16 0 26 -37 32
-55 10z"/>
<path d="M1704 8636 c-9 -22 4 -36 32 -36 21 0 25 4 22 23 -4 26 -45 37 -54
13z"/>
<path d="M2150 8586 c0 -21 21 -31 30 -15 5 7 6 17 4 21 -9 14 -34 9 -34 -6z"/>
<path d="M1926 8545 c-6 -16 2 -45 13 -45 19 1 33 20 26 39 -7 24 -30 28 -39
6z"/>
<path d="M2672 8513 c2 -11 14 -19 32 -21 23 -3 28 0 22 13 -3 9 -6 19 -6 21
0 2 -12 4 -26 4 -19 0 -25 -5 -22 -17z"/>
<path d="M2356 8503 c-3 -3 -6 -17 -6 -30 0 -18 5 -23 25 -23 18 0 25 5 25 20
0 20 -32 44 -44 33z"/>
<path d="M3040 8465 c-13 -15 -7 -45 8 -45 16 0 34 29 28 45 -7 19 -20 19 -36
0z"/>
<path d="M1542 8373 c4 -35 34 -43 43 -12 5 14 2 25 -6 30 -27 17 -40 10 -37
-18z"/>
<path d="M2043 8307 c-27 -12 -29 -29 -7 -52 22 -21 36 -6 32 32 -3 27 -5 29
-25 20z"/>
<path d="M1777 8259 c-13 -8 -15 -14 -7 -30 11 -20 27 -24 49 -10 10 7 11 13
2 30 -13 24 -18 25 -44 10z"/>
<path d="M1930 8182 c0 -16 -11 -50 -24 -75 -19 -38 -21 -49 -10 -58 18 -14
34 -3 34 24 0 12 9 39 20 60 16 29 18 42 10 57 -15 29 -30 25 -30 -8z"/>
<path d="M2458 8200 c-19 -12 -13 -50 9 -50 26 0 53 20 53 40 0 22 -32 27 -62
10z"/>
<path d="M2095 8150 c-8 -26 6 -43 31 -38 13 2 19 12 19 28 0 34 -40 41 -50
10z"/>
<path d="M2282 8158 c-7 -7 -12 -20 -12 -31 0 -32 44 -18 48 16 4 29 -14 37
-36 15z"/>
<path d="M1735 8150 c-12 -20 6 -50 30 -50 15 0 26 7 30 20 9 27 -1 40 -30 40
-13 0 -27 -5 -30 -10z"/>
<path d="M2637 8104 c-4 -4 -7 -16 -7 -26 0 -14 6 -19 23 -16 14 2 22 10 22
23 0 20 -25 32 -38 19z"/>
<path d="M2375 8040 c-8 -26 1 -40 26 -40 22 0 26 29 7 48 -17 17 -26 15 -33
-8z"/>
<path d="M2207 8044 c-4 -4 -7 -20 -7 -36 0 -22 5 -28 21 -28 17 0 20 5 17 32
-3 31 -17 45 -31 32z"/>
<path d="M2000 7995 c0 -27 26 -35 48 -13 21 21 13 38 -18 38 -25 0 -30 -4
-30 -25z"/>
<path d="M2510 7966 c-27 -33 18 -72 48 -42 13 13 14 20 6 34 -15 23 -38 26
-54 8z"/>
<path d="M2807 7974 c-4 -4 -7 -18 -7 -31 0 -21 4 -24 33 -21 27 2 32 7 32 28
0 19 -6 26 -25 28 -14 2 -29 0 -33 -4z"/>
<path d="M2307 7893 c-4 -3 -7 -19 -7 -35 0 -23 4 -28 25 -28 19 0 25 5 25 23
0 33 -26 57 -43 40z"/>
<path d="M2664 7875 c-9 -21 3 -45 21 -45 10 0 15 10 15 30 0 32 -26 43 -36
15z"/>
<path d="M2434 7815 c-8 -21 3 -45 20 -45 18 0 40 36 31 50 -9 15 -45 12 -51
-5z"/>
<path d="M2873 7804 c-6 -16 12 -34 35 -34 6 0 12 11 12 25 0 18 -5 25 -20 25
-11 0 -23 -7 -27 -16z"/>
<path d="M3312 7723 c3 -32 32 -43 42 -17 7 19 -10 44 -31 44 -10 0 -13 -9
-11 -27z"/>
<path d="M2572 7708 c2 -18 10 -23 33 -23 23 0 31 5 33 23 3 19 -1 22 -33 22
-32 0 -36 -3 -33 -22z"/>
<path d="M2776 7665 c-8 -22 4 -45 24 -45 20 0 36 33 25 50 -9 15 -42 12 -49
-5z"/>
<path d="M3207 7653 c-4 -3 -7 -17 -7 -30 0 -18 5 -23 25 -23 20 0 25 5 25 24
0 13 -7 27 -16 30 -19 7 -19 7 -27 -1z"/>
<path d="M2862 7538 c2 -19 9 -23 38 -23 29 0 36 4 38 23 3 20 -1 22 -38 22
-37 0 -41 -2 -38 -22z"/>
<path d="M3062 7525 c-10 -21 -9 -26 8 -35 15 -8 21 -6 30 9 11 22 4 51 -14
51 -7 0 -18 -11 -24 -25z"/>
<path d="M9698 8310 c-11 -26 -29 -47 -52 -61 -42 -25 -46 -45 -11 -61 21 -9
28 -8 46 8 31 28 61 91 57 121 -5 41 -23 38 -40 -7z"/>
<path d="M9792 8218 c-13 -13 -16 -50 -6 -61 9 -9 54 15 54 29 0 39 -24 56
-48 32z"/>
<path d="M9500 8128 c-19 -16 -55 -39 -78 -50 -24 -11 -56 -32 -70 -48 -20
-20 -64 -39 -172 -74 -80 -26 -179 -62 -220 -81 -44 -20 -92 -35 -115 -35 -22
0 -71 -7 -110 -16 -38 -8 -112 -19 -164 -25 -52 -5 -146 -21 -210 -36 -88 -20
-139 -26 -208 -25 -181 4 -225 2 -230 -15 -6 -16 22 -29 79 -37 26 -4 50 -11
53 -17 4 -5 8 -38 10 -74 4 -64 3 -65 -26 -81 -17 -8 -58 -44 -91 -80 -92 -96
-100 -96 -223 16 -36 32 -79 61 -95 65 -17 4 -54 27 -83 52 -82 71 -167 104
-167 65 0 -23 24 -44 68 -62 19 -7 41 -24 49 -37 9 -13 57 -43 107 -68 66 -32
110 -62 160 -111 l69 -66 -2 -77 c-2 -99 18 -167 64 -211 27 -26 35 -42 35
-69 0 -20 7 -61 15 -91 19 -71 19 -143 -1 -255 -25 -141 -17 -202 45 -329 28
-58 51 -110 51 -115 0 -14 100 -91 127 -97 12 -4 30 -3 38 0 24 9 0 46 -35 52
-23 5 -40 24 -84 94 -111 174 -133 257 -103 387 9 37 21 115 27 172 13 120 20
142 60 187 16 18 39 66 52 105 18 58 29 76 54 91 17 10 44 35 61 56 17 21 47
49 66 62 20 14 42 35 48 48 7 13 61 48 128 84 110 58 119 61 200 66 48 2 108
4 135 3 49 -2 49 -2 34 21 -21 31 -60 39 -158 32 -74 -6 -94 -3 -160 19 -41
14 -92 28 -112 31 -43 8 -53 22 -63 87 -9 59 6 71 99 82 39 5 82 10 96 11 14
2 43 8 65 14 22 6 89 15 148 21 78 7 114 14 128 27 10 9 35 20 56 25 21 4 70
19 110 33 39 14 111 32 158 42 60 12 90 23 98 36 7 10 19 18 27 18 8 1 24 15
35 32 13 22 31 34 53 39 19 4 46 18 60 31 15 13 39 29 55 36 21 9 27 18 27 42
0 40 -24 39 -70 -2z m-1253 -655 c66 -21 93 -45 93 -83 0 -36 -1 -36 -59 -9
-102 45 -120 61 -108 93 8 20 8 20 74 -1z m-115 -32 c-3 -29 36 -74 82 -92 17
-7 34 -17 37 -22 15 -21 -14 -67 -60 -96 -54 -35 -69 -38 -78 -16 -6 18 23 55
44 55 18 0 17 35 -2 50 -24 20 -45 4 -45 -33 0 -29 -4 -35 -37 -46 -34 -13
-38 -12 -55 9 -32 40 -63 7 -37 -41 10 -19 12 -20 36 -4 22 15 27 15 40 2 8
-8 20 -31 28 -52 25 -74 -25 -132 -59 -68 l-14 28 -19 -32 c-10 -18 -26 -33
-36 -33 -25 0 -57 58 -57 106 0 38 35 156 59 203 16 28 39 27 47 -3 7 -31 33
-41 53 -21 13 12 13 20 3 48 -7 18 -12 41 -12 50 0 21 29 37 60 34 20 -2 24
-7 22 -26z"/>
<path d="M9694 8085 c-19 -29 -12 -45 21 -45 28 0 43 34 25 55 -17 21 -27 19
-46 -10z"/>
<path d="M9817 7993 c-4 -3 -7 -17 -7 -30 0 -20 5 -23 34 -23 41 0 51 12 36
40 -10 19 -49 27 -63 13z"/>
<path d="M9568 7946 c-25 -18 -22 -29 9 -43 40 -19 45 -16 41 19 -3 36 -23 45
-50 24z"/>
<path d="M7074 7925 c-3 -8 -4 -19 -2 -25 5 -17 129 -57 234 -74 53 -9 113
-25 133 -35 26 -13 68 -20 159 -24 125 -5 131 -3 112 34 -9 15 -22 19 -69 19
-86 0 -206 24 -380 75 -172 50 -179 51 -187 30z"/>
<path d="M9401 7866 c-14 -16 -5 -42 16 -50 22 -9 44 24 32 46 -12 21 -32 23
-48 4z"/>
<path d="M9698 7805 c-14 -31 -1 -46 30 -34 15 6 22 17 22 34 0 34 -36 34 -52
0z"/>
<path d="M9535 7710 c-4 -6 -4 -22 -1 -36 11 -42 70 -26 64 17 -2 17 -10 25
-30 27 -14 2 -29 -2 -33 -8z"/>
<path d="M9770 7675 c-16 -20 -6 -45 19 -45 23 0 51 25 51 46 0 19 -54 19 -70
-1z"/>
<path d="M9390 7637 c0 -7 7 -23 17 -36 15 -23 17 -23 30 -6 23 33 17 55 -17
55 -18 0 -30 -5 -30 -13z"/>
<path d="M9658 7553 c-36 -9 -12 -53 28 -53 29 0 38 14 24 40 -11 20 -19 22
-52 13z"/>
<path d="M9522 7458 c2 -19 9 -23 38 -23 28 0 35 4 35 20 0 16 -8 21 -38 23
-35 3 -38 1 -35 -20z"/>
<path d="M9787 7404 c-10 -11 -9 -52 3 -59 18 -11 51 15 48 38 -3 22 -36 35
-51 21z"/>
<path d="M9652 7268 c2 -18 11 -24 36 -26 17 -2 32 1 32 7 0 27 -14 41 -42 41
-25 0 -29 -4 -26 -22z"/>
<path d="M9748 7153 c-21 -5 -24 -33 -6 -51 20 -20 48 -14 58 14 16 40 0 51
-52 37z"/>
<path d="M8566 6973 c-10 -10 -7 -77 5 -114 15 -44 56 -99 75 -99 24 0 16 43
-21 100 -19 30 -35 67 -35 82 0 27 -12 43 -24 31z"/>
<path d="M9756 6904 c-26 -25 -17 -58 17 -62 24 -3 27 0 27 26 0 40 -22 58
-44 36z"/>
<path d="M8305 6862 c-3 -3 -5 -18 -5 -34 0 -23 4 -28 24 -28 17 0 31 -13 54
-49 36 -59 66 -76 150 -86 59 -7 62 -6 62 14 0 12 -6 23 -12 26 -7 2 -39 11
-70 19 -65 19 -115 56 -134 102 -12 29 -54 51 -69 36z"/>
<path d="M8870 6810 c0 -6 12 -38 26 -71 32 -78 27 -113 -22 -134 -33 -14 -53
-39 -40 -52 3 -3 21 -7 40 -8 46 -3 52 -9 60 -56 8 -53 32 -99 51 -99 24 0 18
45 -15 110 -30 58 -30 61 -19 129 14 83 6 135 -26 167 -25 25 -55 32 -55 14z"/>
<path d="M8711 6704 c-37 -47 -40 -135 -5 -148 23 -9 34 1 34 31 0 15 14 48
31 74 17 27 28 53 24 59 -12 20 -63 11 -84 -16z"/>
<path d="M8588 6544 c-4 -3 -36 -6 -72 -6 -36 0 -66 -3 -66 -7 0 -3 9 -17 19
-30 18 -24 20 -24 107 -15 75 8 89 12 92 28 2 10 -2 22 -10 27 -15 10 -62 12
-70 3z"/>
<path d="M7640 6505 c0 -24 3 -26 33 -23 24 2 32 8 32 23 0 15 -8 21 -32 23
-30 3 -33 1 -33 -23z"/>
<path d="M9678 6506 c-13 -29 -5 -56 17 -56 20 0 29 23 21 55 -8 32 -23 32
-38 1z"/>
<path d="M8136 6472 c-4 -12 -4 -57 -1 -100 l7 -78 87 -99 c68 -78 103 -108
156 -137 37 -21 73 -38 80 -38 7 0 24 -9 39 -21 23 -18 34 -20 86 -14 45 5 63
12 71 26 11 22 17 19 -92 43 -148 33 -275 118 -330 221 l-24 44 26 28 c74 79
73 117 -1 87 -42 -17 -44 -17 -54 0 -6 10 -18 28 -27 39 l-16 21 -7 -22z"/>
<path d="M9111 6476 c-20 -24 -9 -51 19 -51 21 0 25 5 25 30 0 34 -24 45 -44
21z"/>
<path d="M8636 6317 c-83 -124 -103 -169 -81 -187 8 -7 18 -9 23 -6 8 5 83
130 112 186 8 14 26 37 42 52 33 31 34 61 2 66 -17 2 -36 -20 -98 -111z"/>
<path d="M7576 6324 c-10 -27 -7 -54 8 -54 44 0 59 26 30 54 -20 20 -30 20
-38 0z"/>
<path d="M7747 6333 c-18 -17 16 -73 43 -73 11 0 13 39 4 64 -6 16 -35 22 -47
9z"/>
<path d="M9542 6303 c3 -32 41 -45 51 -19 10 26 -3 46 -30 46 -21 0 -24 -4
-21 -27z"/>
<path d="M9016 6281 c-4 -5 -2 -21 4 -36 8 -22 13 -24 30 -15 25 13 26 29 3
46 -21 16 -30 17 -37 5z"/>
<path d="M7715 6158 c-9 -23 -2 -68 10 -70 6 -1 14 11 19 25 8 21 6 31 -7 44
-15 15 -17 15 -22 1z"/>
<path d="M9420 6140 c0 -23 5 -30 19 -30 24 0 45 25 37 45 -3 8 -17 15 -31 15
-21 0 -25 -5 -25 -30z"/>
<path d="M7938 6013 c-12 -3 -18 -14 -18 -34 0 -26 3 -30 23 -27 14 2 23 11
25 27 4 28 -6 39 -30 34z"/>
<path d="M7531 5951 c-7 -13 -6 -23 3 -36 10 -14 16 -15 34 -6 25 13 26 15 12
42 -13 24 -36 25 -49 0z"/>
<path d="M8112 5903 c2 -22 8 -28 28 -28 16 0 26 6 28 19 4 21 -13 36 -41 36
-14 0 -18 -6 -15 -27z"/>
<path d="M5305 6731 c-38 -11 -73 -20 -76 -20 -3 -1 -21 -15 -39 -31 -19 -17
-49 -34 -68 -40 -19 -5 -42 -16 -51 -24 -14 -13 -65 -35 -161 -71 -40 -15 -56
-35 -47 -59 8 -21 42 -20 81 3 17 10 49 24 71 31 22 7 51 21 64 31 13 11 29
19 36 19 6 0 57 22 113 50 115 56 157 69 228 72 45 1 56 -4 130 -55 45 -31 89
-68 99 -83 9 -14 37 -35 61 -45 24 -11 51 -31 60 -45 10 -14 26 -24 40 -24 12
0 26 -4 29 -10 10 -16 25 -11 25 8 0 25 -35 55 -95 84 -32 15 -62 40 -86 72
-21 27 -52 55 -71 63 -18 8 -49 30 -69 50 -35 34 -41 35 -120 39 -63 3 -102
-1 -154 -15z"/>
<path d="M3797 5932 c-9 -10 -17 -26 -17 -34 0 -16 37 -31 52 -22 12 8 10 38
-5 58 -12 16 -14 16 -30 -2z"/>
<path d="M3793 5743 c-7 -2 -13 -13 -13 -24 0 -13 7 -19 24 -19 29 0 39 12 30
34 -6 16 -18 19 -41 9z"/>
<path d="M3806 5594 c-21 -15 -15 -41 10 -51 11 -4 22 1 30 12 18 24 18 28 -4
41 -14 9 -22 8 -36 -2z"/>
<path d="M3917 5603 c-12 -11 -8 -31 9 -47 21 -21 31 -20 39 4 10 32 -27 65
-48 43z"/>
<path d="M4060 5465 c-16 -19 -5 -49 16 -41 9 3 20 6 25 6 5 0 9 11 9 25 0 29
-29 35 -50 10z"/>
<path d="M3926 5451 c-4 -6 -2 -20 4 -31 9 -16 19 -20 42 -18 33 3 43 15 30
35 -11 17 -68 28 -76 14z"/>
<path d="M3801 5391 c-21 -13 2 -61 28 -61 24 0 37 36 21 55 -14 17 -29 19
-49 6z"/>
<path d="M4077 5329 c-32 -19 -14 -69 25 -69 13 0 18 8 18 29 0 36 -19 53 -43
40z"/>
<path d="M3940 5236 c0 -24 28 -56 48 -56 16 0 34 38 28 58 -4 13 -17 18 -41
19 -30 1 -35 -2 -35 -21z"/>
<path d="M3811 5226 c-13 -16 -4 -46 14 -46 19 0 38 28 31 45 -7 19 -30 19
-45 1z"/>
<path d="M4050 5131 c0 -23 14 -41 31 -41 14 0 19 7 19 25 0 20 -5 25 -25 25
-14 0 -25 -4 -25 -9z"/>
<path d="M4203 5098 c-22 -29 -22 -48 0 -63 27 -19 39 -7 35 35 -3 36 -19 48
-35 28z"/>
<path d="M3803 5064 c-3 -8 2 -23 11 -32 16 -16 18 -16 32 2 8 11 14 26 14 33
0 19 -49 16 -57 -3z"/>
<path d="M3934 5066 c-9 -23 15 -56 40 -56 30 0 39 22 20 49 -17 24 -52 28
-60 7z"/>
<path d="M4377 4993 c-13 -12 -7 -41 9 -47 28 -11 34 -7 34 24 0 22 -5 30 -18
30 -10 0 -22 -3 -25 -7z"/>
<path d="M3816 4953 c-4 -9 -1 -23 7 -30 19 -19 47 -5 47 23 0 19 -5 24 -24
24 -13 0 -27 -8 -30 -17z"/>
<path d="M4054 4935 c-7 -18 2 -45 15 -45 6 0 15 10 22 21 9 17 8 23 -2 30
-20 13 -29 11 -35 -6z"/>
<path d="M4207 4934 c-13 -13 -7 -42 10 -48 23 -9 40 10 27 31 -12 20 -27 26
-37 17z"/>
<path d="M4502 4928 c-19 -19 -15 -58 6 -58 25 0 42 19 42 47 0 25 -27 32 -48
11z"/>
<path d="M3915 4871 c-12 -21 15 -51 46 -51 30 0 50 24 33 40 -15 14 -72 22
-79 11z"/>
<path d="M4352 4848 c-17 -17 -15 -67 4 -75 22 -8 36 9 37 48 2 36 -18 50 -41
27z"/>
<path d="M4042 4813 c3 -29 32 -43 50 -25 18 18 -1 52 -28 52 -22 0 -25 -4
-22 -27z"/>
<path d="M4615 4810 c-7 -23 10 -50 31 -50 9 0 14 12 14 35 0 28 -4 35 -19 35
-11 0 -23 -9 -26 -20z"/>
<path d="M3823 4793 c-17 -6 -16 -38 0 -52 21 -17 56 12 41 35 -12 20 -23 25
-41 17z"/>
<path d="M4202 4758 c-15 -15 -16 -45 -2 -53 16 -10 41 16 38 38 -4 25 -20 31
-36 15z"/>
<path d="M4472 4728 c-17 -17 -15 -53 3 -68 22 -19 45 5 45 46 0 26 -4 34 -18
34 -10 0 -23 -5 -30 -12z"/>
<path d="M4050 4688 c1 -42 52 -51 58 -10 3 19 -1 22 -27 22 -18 0 -31 -5 -31
-12z"/>
<path d="M4610 4661 c-15 -29 -12 -49 9 -61 30 -16 38 -12 49 20 9 26 8 32
-11 45 -28 20 -34 19 -47 -4z"/>
<path d="M4310 4651 c0 -27 38 -67 52 -53 5 5 8 22 6 38 -2 23 -9 30 -30 32
-23 3 -28 -1 -28 -17z"/>
<path d="M4465 4566 c-23 -16 -13 -46 15 -46 15 0 20 7 20 24 0 31 -12 39 -35
22z"/>
<path d="M4757 4574 c-27 -27 20 -77 49 -53 23 19 13 53 -16 57 -14 2 -29 0
-33 -4z"/>
<path d="M4176 4554 c-11 -28 -7 -34 24 -34 17 0 30 4 30 9 0 23 -14 41 -30
41 -10 0 -21 -7 -24 -16z"/>
<path d="M4867 4543 c-4 -3 -7 -20 -7 -36 0 -22 4 -28 16 -23 9 3 20 6 25 6
16 0 10 48 -7 54 -19 7 -19 7 -27 -1z"/>
<path d="M4062 4513 c2 -17 9 -28 18 -28 9 0 16 11 18 28 3 22 -1 27 -18 27
-17 0 -21 -5 -18 -27z"/>
<path d="M4595 4509 c-8 -13 23 -49 42 -49 23 0 28 32 8 46 -23 17 -41 18 -50
3z"/>
<path d="M4980 4490 c0 -29 2 -31 33 -28 27 2 32 7 32 28 0 21 -5 26 -32 28
-31 3 -33 1 -33 -28z"/>
<path d="M4315 4500 c-11 -18 6 -50 25 -50 25 0 33 15 20 40 -11 21 -35 27
-45 10z"/>
<path d="M4753 4419 c-32 -12 -31 -49 1 -49 15 0 26 7 29 19 7 28 -5 40 -30
30z"/>
<path d="M4835 4380 c-18 -20 -18 -21 1 -35 26 -20 39 -13 39 20 0 36 -16 42
-40 15z"/>
<path d="M5231 4362 c-12 -23 2 -47 23 -39 20 8 22 57 1 57 -8 0 -19 -8 -24
-18z"/>
<path d="M4416 4354 c-8 -21 1 -34 25 -34 14 0 19 7 19 25 0 29 -34 36 -44 9z"/>
<path d="M4580 4353 c0 -28 15 -44 33 -37 9 3 17 17 17 30 0 19 -5 24 -25 24
-17 0 -25 -5 -25 -17z"/>
<path d="M4975 4324 c-9 -14 -32 -32 -51 -40 -30 -13 -33 -17 -24 -34 14 -26
66 -27 74 -2 4 11 17 25 31 32 32 17 40 41 19 57 -25 18 -29 17 -49 -13z"/>
<path d="M5123 4328 c-37 -18 -36 -37 2 -55 44 -21 62 -9 48 33 -11 32 -20 36
-50 22z"/>
<path d="M7104 6289 c-38 -43 -223 -136 -324 -163 -30 -8 -102 -29 -160 -46
-58 -18 -143 -38 -190 -47 -90 -15 -237 -55 -269 -73 -25 -13 -182 -13 -216 0
-23 9 -26 14 -20 38 3 14 29 50 56 79 73 77 60 134 -19 79 -28 -19 -41 -37
-50 -68 -25 -94 -66 -131 -182 -169 -106 -35 -157 -67 -209 -134 -50 -63 -58
-68 -170 -103 -62 -19 -64 -19 -113 0 -27 10 -60 31 -73 46 -51 60 -123 132
-134 132 -30 0 -3 -45 79 -132 133 -142 171 -153 305 -90 58 27 97 54 141 98
111 112 224 151 469 164 169 9 211 15 235 35 17 15 98 25 215 28 69 2 85 6
119 30 21 15 48 27 59 27 11 0 29 7 39 16 11 10 34 16 60 16 49 -1 91 16 163
65 27 18 55 33 61 33 6 0 24 -16 38 -35 31 -40 52 -45 61 -14 5 16 0 27 -21
44 -35 28 -27 40 47 72 65 28 84 57 53 80 -24 17 -28 17 -50 -8z"/>
<path d="M4040 6288 c0 -22 51 -78 93 -102 23 -13 83 -37 132 -52 55 -17 103
-38 123 -56 32 -27 85 -38 96 -20 11 18 -26 51 -74 67 -27 9 -64 27 -83 39
-18 13 -53 26 -78 30 -52 8 -119 45 -147 81 -20 25 -62 35 -62 13z"/>
<path d="M4600 6135 c0 -53 -3 -66 -19 -75 -19 -10 -19 -11 0 -60 10 -28 19
-59 19 -70 0 -30 31 -25 60 10 l25 30 142 -14 c78 -8 146 -17 151 -20 8 -5
169 -25 422 -53 25 -3 49 -9 55 -14 17 -17 35 -9 35 16 0 25 -3 26 -160 71 -9
2 -92 8 -186 14 -93 5 -184 15 -202 21 -21 7 -39 25 -54 52 -23 40 -81 88
-125 101 -33 10 -28 -8 12 -48 55 -56 45 -83 -27 -71 -51 9 -88 44 -88 83 0
48 -20 92 -41 92 -17 0 -19 -8 -19 -65z"/>
<path d="M7056 6045 c-8 -23 4 -45 25 -45 25 0 25 36 0 49 -14 8 -20 7 -25 -4z"/>
<path d="M6796 6023 c-3 -4 -6 -17 -6 -31 0 -18 4 -23 16 -18 9 3 18 6 20 6 2
0 4 9 4 19 0 19 -23 35 -34 24z"/>
<path d="M6910 6003 c0 -10 4 -24 9 -32 8 -12 12 -12 25 -2 26 21 20 51 -9 51
-17 0 -25 -5 -25 -17z"/>
<path d="M7033 5953 c-16 -3 -23 -12 -23 -27 0 -30 5 -34 35 -28 20 3 25 10
25 33 0 16 -3 28 -7 28 -5 -1 -18 -4 -30 -6z"/>
<path d="M6705 5863 c8 -34 11 -37 24 -28 6 3 11 17 11 31 0 18 -5 24 -21 24
-18 0 -20 -4 -14 -27z"/>
<path d="M6864 5865 c-8 -20 3 -48 18 -43 6 2 16 12 22 21 8 13 7 20 -4 27
-21 14 -30 12 -36 -5z"/>
<path d="M6985 5850 c-21 -23 -14 -50 14 -50 22 0 32 19 24 49 -7 26 -15 26
-38 1z"/>
<path d="M4640 5807 c0 -18 19 -40 75 -86 76 -63 150 -111 173 -111 6 0 12 10
12 23 0 17 -28 42 -120 107 -66 47 -124 86 -130 88 -5 2 -10 -7 -10 -21z"/>
<path d="M6794 5745 c-8 -19 3 -35 25 -35 18 0 35 33 23 44 -11 12 -43 6 -48
-9z"/>
<path d="M6936 5724 c-4 -15 -18 -43 -32 -63 -30 -44 -30 -51 -1 -51 17 0 27
12 46 55 22 52 23 85 2 85 -5 0 -12 -12 -15 -26z"/>
<path d="M6640 5697 c0 -31 9 -38 31 -26 15 8 17 14 9 29 -15 28 -40 25 -40
-3z"/>
<path d="M5596 5610 c-27 -33 -34 -74 -14 -86 14 -9 101 81 95 99 -2 6 -15 13
-29 15 -18 2 -33 -6 -52 -28z"/>
<path d="M6847 5532 c-23 -25 -12 -52 20 -52 21 0 24 4 21 32 -4 38 -18 45
-41 20z"/>
<path d="M5200 5468 c-27 -101 -61 -112 -139 -42 -35 31 -58 44 -73 42 -21 -3
-18 -8 32 -63 30 -33 62 -70 70 -82 10 -15 30 -25 56 -29 l40 -6 28 65 c19 45
26 78 24 108 -4 57 -24 61 -38 7z"/>
<path d="M5365 5430 c-3 -5 -24 -15 -45 -21 -44 -13 -49 -26 -22 -58 l17 -21
50 19 c39 15 51 24 53 43 2 18 -4 27 -22 36 -15 7 -28 8 -31 2z"/>
<path d="M6780 5415 c-10 -12 -10 -18 0 -30 18 -21 37 -19 51 6 9 17 8 23 -2
30 -20 13 -35 11 -49 -6z"/>
<path d="M6722 5328 c-7 -7 -12 -22 -12 -35 0 -19 5 -23 30 -23 24 0 31 5 36
26 9 37 -27 59 -54 32z"/>
<path d="M6624 5195 c-4 -9 -2 -21 4 -27 16 -16 47 -5 47 17 0 26 -42 34 -51
10z"/>
<path d="M6561 5107 c-15 -19 -3 -50 16 -43 8 3 19 6 25 6 5 0 8 10 6 22 -4
27 -30 35 -47 15z"/>
<path d="M6455 5006 c-26 -19 -13 -46 24 -46 28 0 41 14 41 46 0 18 -40 18
-65 0z"/>
<path d="M6351 4926 c-15 -28 -8 -46 18 -46 29 0 45 25 31 49 -14 28 -34 26
-49 -3z"/>
<path d="M6248 4876 c-23 -17 -23 -45 -2 -53 19 -7 44 21 44 49 0 21 -18 23
-42 4z"/>
<path d="M6059 4814 c-11 -14 -9 -19 11 -35 14 -10 30 -17 35 -15 18 5 18 39
-1 53 -23 17 -29 16 -45 -3z"/>
<path d="M200 3943 c1 -63 52 -203 92 -254 19 -24 55 -40 73 -33 9 4 30 34 47
67 16 33 41 78 55 99 33 50 33 86 -1 115 -25 21 -36 23 -147 23 -107 0 -119
-2 -119 -17z m184 -43 c14 -5 26 -16 26 -25 0 -15 -13 -19 -87 -29 -41 -6 -43
-5 -43 19 0 19 6 26 28 31 23 5 41 10 49 13 1 1 13 -3 27 -9z"/>
<path d="M1421 2693 c-5 -10 -6 -41 -4 -70 5 -51 7 -54 84 -117 43 -36 92 -84
110 -106 51 -63 72 -70 191 -60 57 5 138 12 181 16 l77 6 0 42 c0 39 -5 48
-57 98 -82 77 -108 91 -179 99 -39 4 -73 14 -92 28 -17 11 -38 21 -49 21 -10
0 -56 14 -103 30 -98 34 -145 38 -159 13z m151 -65 c9 -7 18 -32 21 -55 4 -38
3 -43 -14 -43 -26 0 -63 78 -47 97 13 16 20 16 40 1z m132 -68 c31 -11 33 -23
6 -50 -28 -28 -16 -52 24 -48 28 3 31 6 31 38 l0 35 45 -3 c24 -2 46 -5 48 -7
3 -2 7 -24 9 -47 4 -30 1 -47 -9 -55 -7 -6 -51 -13 -97 -14 l-84 -3 -33 39
c-19 21 -34 43 -34 50 0 12 51 75 62 75 4 0 18 -4 32 -10z m265 -94 c14 -16 5
-42 -16 -50 -29 -11 -58 35 -36 57 11 12 40 8 52 -7z"/>
<path d="M6330 1931 c-30 -16 -35 -24 -33 -51 3 -63 69 -122 156 -139 29 -6
70 -13 91 -17 l39 -7 -5 41 c-11 79 -100 173 -178 187 -25 4 -45 0 -70 -14z
m92 -68 c24 -22 24 -53 -2 -53 -22 0 -44 34 -36 56 7 18 15 18 38 -3z"/>
<path d="M3996 1790 c-45 -67 -50 -81 -51 -130 l0 -55 51 -3 c54 -3 66 1 249
81 63 28 84 42 98 69 42 79 1 105 -172 110 l-124 3 -51 -75z m195 -16 c11 -14
10 -18 -6 -30 -10 -8 -36 -14 -57 -14 -25 0 -41 -5 -44 -15 -4 -8 -12 -15 -19
-15 -22 0 -26 30 -8 61 16 26 23 29 69 29 35 0 56 -5 65 -16z"/>
<path d="M2962 478 c-27 -51 -53 -103 -57 -115 -17 -59 28 -91 138 -100 45 -4
82 -13 97 -24 20 -14 134 -39 179 -39 6 0 11 16 11 35 0 45 -32 81 -135 148
-44 29 -89 66 -100 84 -11 18 -29 47 -40 64 -11 18 -25 34 -32 36 -6 2 -34
-38 -61 -89z m70 -87 c18 -32 26 -38 40 -30 22 12 78 -14 78 -36 0 -18 -65
-21 -75 -4 -4 6 -19 7 -37 4 -52 -12 -84 36 -58 86 16 28 27 24 52 -20z"/>
</g>
</svg>
